<?xml version="1.0" encoding="UTF-8" ?>
<!DOCTYPE svg PUBLIC "-//W3C//DTD SVG 1.1//EN" "http://www.w3.org/Graphics/SVG/1.1/DTD/svg11.dtd">
<svg width="790pt" height="464pt" viewBox="0 0 790 464" version="1.1" xmlns="http://www.w3.org/2000/svg">
<g id="#ffffffff">
<path fill="#ffffff" opacity="1.00" d=" M 0.00 0.00 L 790.00 0.00 L 790.00 464.00 L 0.00 464.00 L 0.00 0.00 M 49.31 23.12 C 41.20 24.09 34.71 31.86 34.83 39.94 C 34.85 164.33 34.85 288.71 34.83 413.10 C 34.64 417.86 37.10 422.32 40.35 425.63 C 43.95 429.13 49.12 430.30 54.00 430.26 C 130.67 430.24 207.34 430.25 284.00 430.25 C 287.58 430.17 291.17 429.79 294.64 428.93 C 303.56 425.87 309.36 417.55 313.03 409.27 C 317.57 395.69 320.79 381.67 323.27 367.57 C 326.68 345.48 329.73 322.59 340.71 302.74 C 344.40 295.43 350.75 289.88 357.40 285.31 C 368.30 278.85 381.63 278.34 393.85 280.40 C 404.97 282.66 414.45 289.99 421.00 299.05 C 433.62 319.45 436.94 343.74 440.51 367.01 C 442.98 381.30 446.24 395.50 450.84 409.26 C 454.50 417.54 460.31 425.86 469.24 428.93 C 472.76 429.80 476.41 430.19 480.04 430.25 C 556.69 430.24 633.34 430.24 709.99 430.26 C 714.64 430.27 719.53 429.22 723.08 426.04 C 726.59 422.71 729.21 418.05 729.04 413.09 C 729.02 288.70 729.02 164.30 729.04 39.90 C 729.22 30.42 720.43 22.24 711.00 22.77 C 492.00 22.74 272.99 22.78 53.99 22.75 C 52.43 22.77 50.86 22.85 49.31 23.12 Z" />
<path fill="#ffffff" opacity="1.00" d=" M 210.38 156.86 C 223.88 154.65 238.10 155.86 250.72 161.33 C 257.69 164.67 264.60 168.44 270.37 173.64 C 278.55 181.59 285.69 190.95 289.43 201.83 C 297.15 222.07 294.69 245.79 283.12 264.08 C 276.94 273.37 269.21 281.93 259.25 287.24 C 240.76 298.68 216.88 300.17 196.77 292.27 C 187.14 287.90 177.62 282.47 170.81 274.19 C 159.80 262.43 153.32 246.72 152.37 230.68 C 151.37 213.28 156.86 195.42 168.08 182.01 C 178.38 168.75 193.98 159.96 210.38 156.86 Z" />
<path fill="#ffffff" opacity="1.00" d=" M 528.40 156.81 C 541.66 154.69 555.57 155.90 568.00 161.12 C 574.98 164.41 581.86 168.16 587.69 173.26 C 596.41 181.57 603.88 191.54 607.62 203.11 C 614.78 223.01 612.18 246.07 600.93 263.96 C 596.76 270.28 591.83 276.18 586.08 281.13 C 575.83 288.97 563.81 294.99 550.87 296.49 C 535.79 298.57 519.88 296.10 506.65 288.38 C 499.46 284.59 492.86 279.62 487.73 273.27 C 473.74 257.87 467.56 235.96 470.85 215.47 C 473.44 198.21 482.93 182.38 496.29 171.29 C 505.78 164.24 516.64 158.72 528.40 156.81 Z" />
</g>
<g id="#0b0c0aff">
<path fill="#0b0c0a" opacity="1.00" d=" M 49.31 23.12 C 50.86 22.85 52.43 22.77 53.99 22.75 C 272.99 22.78 492.00 22.74 711.00 22.77 C 720.43 22.24 729.22 30.42 729.04 39.90 C 729.02 164.30 729.02 288.70 729.04 413.09 C 729.21 418.05 726.59 422.71 723.08 426.04 C 719.53 429.22 714.64 430.27 709.99 430.26 C 633.34 430.24 556.69 430.24 480.04 430.25 C 476.41 430.19 472.76 429.80 469.24 428.93 C 460.31 425.86 454.50 417.54 450.84 409.26 C 446.24 395.50 442.98 381.30 440.51 367.01 C 436.94 343.74 433.62 319.45 421.00 299.05 C 414.45 289.99 404.97 282.66 393.85 280.40 C 381.63 278.34 368.30 278.85 357.40 285.31 C 350.75 289.88 344.40 295.43 340.71 302.74 C 329.73 322.59 326.68 345.48 323.27 367.57 C 320.79 381.67 317.57 395.69 313.03 409.27 C 309.36 417.55 303.56 425.87 294.64 428.93 C 291.17 429.79 287.58 430.17 284.00 430.25 C 207.34 430.25 130.67 430.24 54.00 430.26 C 49.12 430.30 43.95 429.13 40.35 425.63 C 37.10 422.32 34.64 417.86 34.83 413.10 C 34.85 288.71 34.85 164.33 34.83 39.94 C 34.71 31.86 41.20 24.09 49.31 23.12 M 210.38 156.86 C 193.98 159.96 178.38 168.75 168.08 182.01 C 156.86 195.42 151.37 213.28 152.37 230.68 C 153.32 246.72 159.80 262.43 170.81 274.19 C 177.62 282.47 187.14 287.90 196.77 292.27 C 216.88 300.17 240.76 298.68 259.25 287.24 C 269.21 281.93 276.94 273.37 283.12 264.08 C 294.69 245.79 297.15 222.07 289.43 201.83 C 285.69 190.95 278.55 181.59 270.37 173.64 C 264.60 168.44 257.69 164.67 250.72 161.33 C 238.10 155.86 223.88 154.65 210.38 156.86 M 528.40 156.81 C 516.64 158.72 505.78 164.24 496.29 171.29 C 482.93 182.38 473.44 198.21 470.85 215.47 C 467.56 235.96 473.74 257.87 487.73 273.27 C 492.86 279.62 499.46 284.59 506.65 288.38 C 519.88 296.10 535.79 298.57 550.87 296.49 C 563.81 294.99 575.83 288.97 586.08 281.13 C 591.83 276.18 596.76 270.28 600.93 263.96 C 612.18 246.07 614.78 223.01 607.62 203.11 C 603.88 191.54 596.41 181.57 587.69 173.26 C 581.86 168.16 574.98 164.41 568.00 161.12 C 555.57 155.90 541.66 154.69 528.40 156.81 Z" />
</g>
</svg>
