<?xml version="1.0" encoding="UTF-8" ?>
<!DOCTYPE svg PUBLIC "-//W3C//DTD SVG 1.1//EN" "http://www.w3.org/Graphics/SVG/1.1/DTD/svg11.dtd">
<svg width="182pt" height="172pt" viewBox="0 0 182 172" version="1.1" xmlns="http://www.w3.org/2000/svg">
<g id="#ffffffff">
<path fill="#ffffff" opacity="1.00" d=" M 0.00 0.00 L 71.13 0.00 C 70.47 1.25 71.57 3.00 72.98 2.94 C 72.91 2.20 72.76 0.73 72.68 0.00 L 182.00 0.00 L 182.00 172.00 L 0.00 172.00 L 0.00 92.40 C 0.51 93.40 1.00 94.41 1.46 95.43 C 2.06 97.46 1.64 99.83 2.99 101.58 C 2.75 101.79 2.28 102.20 2.05 102.41 C 4.14 105.15 2.44 108.87 4.88 111.36 C 2.90 113.33 6.81 114.52 7.64 116.16 C 5.77 117.11 6.50 119.84 8.59 119.61 C 8.10 122.69 10.04 126.00 12.22 128.03 C 11.97 126.67 11.64 125.35 11.20 124.05 C 11.96 123.87 12.72 123.68 13.48 123.48 C 11.76 122.73 10.90 121.30 10.63 119.57 C 9.30 117.10 12.00 114.82 12.25 112.35 C 12.61 111.93 13.32 111.08 13.67 110.66 C 14.28 109.60 14.93 108.56 15.58 107.53 C 16.47 106.27 17.23 103.73 19.21 104.26 C 21.18 104.48 24.48 112.03 19.52 106.61 L 18.93 105.76 C 18.28 106.10 17.63 106.46 16.98 106.81 C 18.89 107.49 20.89 107.99 22.69 108.93 C 23.57 112.43 25.32 115.69 27.66 118.43 C 29.30 121.10 31.41 123.59 32.25 126.67 C 33.48 127.97 34.75 129.23 36.03 130.48 C 35.61 131.52 35.00 132.47 34.36 133.38 L 34.01 131.92 C 32.88 132.58 31.72 133.18 30.56 133.78 C 29.54 134.06 28.53 134.37 27.52 134.70 C 25.49 135.46 23.35 136.47 21.13 135.94 C 19.95 135.53 19.70 134.12 18.76 133.42 C 18.14 133.69 17.60 134.12 17.14 134.69 C 16.06 133.71 15.17 132.49 14.85 131.05 C 15.81 131.38 17.10 132.35 18.05 131.47 C 15.97 129.64 14.72 127.16 13.84 124.58 C 13.44 125.12 13.05 125.67 12.66 126.22 C 13.45 127.78 14.92 129.17 14.85 131.05 C 14.44 130.89 13.64 130.56 13.24 130.40 C 13.90 134.02 17.08 136.23 18.84 139.26 C 19.79 140.77 22.32 140.15 22.08 142.52 C 24.43 144.96 26.80 147.39 29.32 149.66 C 30.80 150.46 32.10 151.53 33.40 152.60 C 34.87 153.46 36.09 154.66 37.22 155.92 C 38.02 155.41 38.39 154.48 38.98 153.78 L 39.08 154.92 C 39.67 155.00 40.84 155.16 41.43 155.24 C 46.59 156.68 52.00 155.75 57.27 156.00 C 58.92 158.39 62.07 159.03 63.72 161.44 C 65.01 163.46 67.54 164.31 69.85 164.01 C 67.55 165.56 64.14 165.57 61.93 163.82 L 62.15 165.33 C 61.28 164.71 60.41 164.09 59.53 163.50 C 56.31 163.16 53.17 162.48 50.40 160.74 C 49.43 160.19 48.46 159.64 47.50 159.09 C 46.88 159.05 45.65 158.99 45.04 158.95 L 44.90 158.39 C 43.38 157.51 41.86 156.62 40.36 155.73 C 41.61 157.55 43.42 158.83 45.38 159.77 C 46.76 160.40 48.13 161.05 49.49 161.73 C 52.12 162.70 54.66 163.97 57.48 164.26 C 59.45 165.12 61.43 165.97 63.40 166.84 C 63.63 166.72 64.08 166.49 64.31 166.38 C 67.40 167.42 70.79 166.46 73.81 167.80 L 74.19 167.01 C 77.00 168.87 80.61 168.00 83.69 167.40 C 83.99 167.57 84.58 167.89 84.87 168.06 L 85.25 166.84 C 85.52 167.10 86.07 167.63 86.34 167.90 C 88.61 166.96 91.41 167.66 93.56 166.08 C 93.78 166.30 94.23 166.74 94.45 166.97 C 95.42 166.45 96.41 165.98 97.42 165.55 C 99.15 165.10 100.92 164.79 102.69 164.58 C 103.27 164.37 104.41 163.94 104.99 163.72 L 105.09 161.85 C 104.31 162.24 102.73 163.04 101.94 163.43 C 101.91 163.02 101.85 162.19 101.81 161.77 L 103.95 162.03 L 104.05 161.28 C 105.54 160.67 107.03 160.02 108.52 159.39 C 109.70 158.58 110.82 157.68 111.94 156.78 L 112.08 158.24 C 112.57 157.85 113.55 157.08 114.05 156.69 C 114.03 157.17 113.99 158.14 113.97 158.62 C 111.96 159.39 110.06 160.45 108.48 161.92 C 107.86 161.95 106.62 162.01 106.00 162.04 L 106.03 163.23 C 107.17 162.99 108.31 162.72 109.45 162.44 C 111.62 161.06 114.26 160.02 115.35 157.50 C 117.24 158.20 119.15 157.96 120.45 156.30 C 124.41 155.05 126.89 151.25 130.70 149.64 C 132.78 146.42 136.35 144.61 138.45 141.38 C 138.82 141.18 139.56 140.78 139.93 140.58 C 139.97 140.30 140.06 139.75 140.10 139.48 C 142.20 138.07 143.15 135.62 144.54 133.61 C 145.91 131.29 148.22 129.48 148.80 126.73 C 148.85 124.82 150.49 123.76 151.78 122.65 C 152.54 119.55 153.66 116.53 154.21 113.37 C 154.82 112.37 155.44 111.38 156.07 110.40 C 155.81 110.22 155.30 109.88 155.04 109.70 C 156.72 107.53 156.79 104.75 157.94 102.38 C 157.72 102.19 157.26 101.81 157.03 101.62 C 158.93 99.54 157.06 96.27 159.06 94.22 C 158.34 93.95 157.62 93.67 156.90 93.40 C 156.96 95.39 156.99 97.40 156.91 99.40 C 155.01 102.61 156.17 106.66 154.03 109.77 C 156.10 110.24 153.49 112.20 153.35 113.36 C 153.03 114.53 152.63 115.68 152.10 116.77 C 152.05 117.46 151.95 118.85 151.90 119.55 C 149.98 122.11 148.02 124.64 145.69 126.86 C 144.28 127.07 142.90 127.80 141.45 127.56 C 140.87 125.43 142.86 123.50 143.39 121.49 C 143.67 120.46 143.94 119.43 144.18 118.39 C 145.10 117.13 146.01 115.86 146.94 114.60 C 145.03 113.35 147.58 111.74 148.03 110.39 C 147.80 110.23 147.35 109.90 147.13 109.73 C 148.28 106.94 149.12 104.03 149.80 101.09 C 148.35 98.92 146.30 100.25 145.64 102.31 C 146.25 101.93 147.48 101.17 148.09 100.80 C 147.86 102.71 148.45 104.89 147.16 106.53 C 147.10 107.15 146.98 108.38 146.92 109.00 L 146.00 109.00 L 146.00 109.94 L 147.18 109.98 C 145.93 111.61 144.76 113.30 143.66 115.03 L 145.32 114.79 C 144.74 115.71 144.16 116.62 143.63 117.57 C 143.19 118.54 142.75 119.51 142.32 120.48 C 141.96 121.91 141.37 123.26 140.74 124.59 C 140.48 125.19 139.95 126.40 139.69 127.01 C 138.61 126.99 137.53 126.97 136.46 126.95 C 135.48 126.32 134.51 125.69 133.54 125.06 C 132.98 125.04 131.87 125.00 131.32 124.98 C 130.90 124.49 130.07 123.51 129.66 123.02 C 129.12 122.99 128.05 122.94 127.52 122.91 C 126.46 121.99 125.32 121.14 124.03 120.58 C 124.02 120.24 124.00 119.57 123.99 119.23 C 123.36 119.04 122.09 118.64 121.46 118.44 C 120.46 117.66 119.50 116.85 118.57 116.00 C 120.47 114.21 121.33 111.01 124.28 110.64 C 123.92 110.40 123.20 109.92 122.84 109.68 C 124.17 108.41 125.45 107.06 126.32 105.42 C 127.21 103.69 128.28 102.07 129.32 100.43 C 129.97 99.10 130.63 97.77 131.28 96.44 C 132.75 93.46 134.10 90.42 135.78 87.55 C 136.23 85.91 136.73 84.29 137.14 82.65 C 135.64 83.50 134.82 84.84 134.74 86.54 C 133.62 88.88 132.12 91.10 131.77 93.72 C 130.98 95.06 130.09 96.34 129.09 97.54 C 129.06 98.06 129.00 99.12 128.97 99.65 C 127.98 100.55 127.01 101.46 126.02 102.37 C 125.99 102.90 125.93 103.96 125.90 104.49 C 124.98 105.55 124.13 106.67 123.58 107.98 C 123.19 107.99 122.41 108.00 122.02 108.01 C 122.02 108.46 122.00 109.36 121.99 109.81 C 120.35 110.39 118.71 110.98 116.98 111.25 L 117.01 111.84 C 118.20 111.94 119.32 112.27 120.47 112.45 C 119.71 113.10 118.21 114.39 117.46 115.04 C 114.46 111.88 111.34 108.84 108.24 105.78 C 104.52 102.20 102.08 97.56 98.58 93.79 C 98.03 93.77 96.94 93.73 96.39 93.70 C 99.46 96.72 102.09 100.12 104.54 103.64 C 106.79 106.95 110.39 109.09 112.41 112.58 C 113.67 113.44 114.88 114.35 116.08 115.29 C 116.05 115.86 115.98 117.01 115.94 117.58 C 114.64 118.76 113.46 120.08 112.60 121.62 C 110.79 122.44 109.37 123.80 108.70 125.70 C 108.03 126.37 107.36 127.04 106.68 127.70 C 104.29 128.48 103.11 130.72 101.81 132.68 C 96.85 135.03 93.30 139.40 88.46 141.98 C 87.50 141.09 86.50 140.25 85.32 139.66 C 83.17 137.81 81.16 135.77 79.57 133.41 C 76.35 131.04 74.42 127.27 71.31 124.68 C 70.56 123.15 69.58 121.76 68.70 120.30 C 67.30 118.80 65.88 117.31 64.46 115.82 C 65.35 115.89 67.12 116.01 68.01 116.08 L 68.01 115.02 C 67.44 115.01 66.29 115.00 65.71 114.99 C 66.11 114.50 66.90 113.52 67.30 113.03 C 67.84 113.00 68.91 112.95 69.45 112.92 C 70.45 112.12 71.46 111.35 72.52 110.63 C 76.01 108.08 79.81 105.95 83.01 103.02 C 85.57 100.50 88.95 99.04 91.33 96.32 C 92.39 95.70 93.42 95.05 94.46 94.40 C 99.09 91.24 103.01 87.25 107.32 83.72 C 110.59 80.75 114.09 78.05 117.27 74.97 C 117.92 74.27 118.56 73.56 119.19 72.85 C 120.68 71.60 122.22 70.39 123.99 69.56 C 123.97 69.07 123.94 68.10 123.93 67.62 C 119.09 69.94 116.41 75.01 112.06 78.02 C 109.65 79.56 107.76 81.72 105.68 83.66 C 102.41 85.07 100.81 88.68 97.65 90.19 C 96.43 89.73 95.21 89.25 94.01 88.76 C 94.00 88.17 93.99 87.00 93.99 86.41 C 93.58 85.98 92.76 85.12 92.35 84.70 C 91.60 83.17 90.59 81.81 89.65 80.41 C 87.92 78.32 86.82 75.82 85.79 73.34 C 84.99 72.00 84.11 70.71 83.13 69.50 C 83.07 69.00 82.94 67.99 82.87 67.48 C 82.34 66.54 81.82 65.59 81.31 64.63 C 80.78 63.57 80.21 62.53 79.66 61.48 C 83.04 60.38 86.44 59.25 89.42 57.26 C 91.33 56.96 93.02 56.00 94.68 55.05 C 94.84 55.27 95.16 55.72 95.32 55.94 C 97.27 54.88 99.40 54.20 101.57 53.79 C 102.54 53.24 103.50 52.69 104.47 52.14 C 104.96 52.04 105.94 51.85 106.43 51.76 C 109.13 50.83 111.94 50.30 114.75 49.84 C 114.85 52.86 116.59 55.37 118.72 57.37 C 119.33 59.55 120.38 61.57 121.62 63.46 C 122.29 64.46 122.97 65.46 123.65 66.45 C 128.40 73.42 133.51 80.65 140.88 85.10 C 142.15 85.95 143.35 86.91 144.51 87.92 C 145.02 87.95 146.04 88.03 146.55 88.06 C 147.59 88.75 148.80 89.25 149.66 90.19 C 149.73 91.55 149.60 92.93 148.93 94.16 C 149.41 94.11 150.39 94.02 150.87 93.97 C 150.89 92.69 151.03 91.43 151.28 90.18 C 152.35 89.59 153.47 89.10 154.62 88.68 C 155.47 87.99 156.33 87.32 157.19 86.64 C 157.05 88.10 156.83 89.56 156.04 90.82 C 157.16 91.72 158.28 92.65 159.44 93.51 C 159.06 92.61 158.30 90.82 157.92 89.92 C 160.08 89.97 162.24 90.00 164.40 90.12 C 165.47 91.18 166.45 91.18 167.34 90.12 C 168.47 91.28 169.79 90.09 171.02 89.83 L 171.00 89.20 C 169.61 89.17 168.39 88.73 167.34 87.89 C 167.23 88.19 167.01 88.77 166.90 89.07 C 165.76 88.26 164.54 87.44 163.41 88.91 C 161.48 88.99 159.54 89.00 157.61 89.00 C 158.01 88.65 158.79 87.95 159.18 87.60 C 158.86 87.32 158.22 86.77 157.90 86.50 C 158.21 86.20 158.82 85.60 159.12 85.30 L 157.81 84.67 C 158.11 84.39 158.69 83.83 158.99 83.55 C 157.62 82.08 158.13 79.93 157.76 78.13 C 157.70 76.53 156.97 74.77 157.86 73.29 C 157.29 72.39 156.73 71.49 156.17 70.60 C 155.95 68.80 155.58 67.02 155.16 65.25 C 154.77 65.12 153.99 64.87 153.61 64.74 C 153.96 64.45 154.68 63.85 155.04 63.56 C 154.08 61.98 152.89 60.48 152.44 58.66 C 152.99 55.47 149.48 53.36 148.74 50.40 C 147.02 46.88 144.27 44.04 142.33 40.67 C 141.25 37.95 138.65 36.33 136.74 34.25 C 133.95 31.71 131.71 28.47 128.33 26.64 C 126.80 25.22 125.28 23.76 123.50 22.63 C 122.51 22.21 121.52 21.77 120.53 21.33 C 118.58 19.98 116.57 18.69 114.40 17.72 C 113.43 17.20 112.47 16.68 111.52 16.15 C 111.03 16.05 110.06 15.86 109.58 15.76 C 108.52 15.41 107.45 15.08 106.37 14.79 C 105.27 14.10 104.18 13.38 103.11 12.64 C 102.92 13.48 102.73 14.32 102.53 15.16 C 104.26 15.19 105.88 15.81 107.54 16.22 C 108.05 16.47 109.08 16.97 109.60 17.23 C 111.26 18.10 113.00 19.00 114.05 20.63 C 113.20 21.43 112.19 22.01 111.05 22.36 C 111.01 22.85 110.94 23.81 110.90 24.29 C 110.30 24.03 109.10 23.50 108.49 23.24 C 106.21 23.15 104.13 22.26 102.23 21.05 C 100.60 20.93 98.81 21.27 97.44 20.14 C 96.31 20.07 95.18 20.01 94.05 19.96 L 93.99 18.97 L 92.70 19.02 C 93.08 19.48 93.84 20.38 94.21 20.84 C 98.79 21.34 103.22 22.65 107.48 24.36 C 108.12 24.54 109.41 24.90 110.06 25.08 C 108.48 27.21 109.11 29.98 108.76 32.44 C 107.81 31.93 106.87 31.43 105.93 30.92 C 106.10 31.51 106.43 32.68 106.60 33.27 C 107.32 33.29 108.75 33.33 109.46 33.34 L 110.03 33.87 C 112.91 34.03 115.76 34.30 118.52 35.27 C 122.11 37.71 126.61 38.41 130.55 40.28 C 131.53 41.00 132.53 41.71 133.55 42.40 C 134.59 43.06 135.65 43.70 136.74 44.28 C 137.67 45.25 138.58 46.24 139.43 47.28 C 138.67 46.99 137.16 46.41 136.40 46.13 C 134.20 45.98 131.99 45.98 129.79 46.03 C 127.97 47.50 125.64 46.99 123.50 46.81 C 122.90 47.52 122.31 48.24 121.73 48.97 C 125.90 47.51 130.42 48.17 134.65 47.20 C 136.20 48.54 138.38 47.81 140.22 48.03 C 136.34 55.04 130.14 60.25 125.13 66.42 C 124.41 65.00 123.33 63.83 122.32 62.63 C 121.10 60.20 119.82 57.80 118.76 55.30 C 117.85 54.39 116.94 53.50 116.02 52.61 C 116.01 51.41 116.00 50.20 115.99 49.00 C 117.76 49.00 119.53 49.00 121.30 49.00 C 120.89 48.50 120.07 47.51 119.66 47.01 C 117.81 48.20 115.51 48.40 113.37 48.43 C 110.96 50.05 108.04 49.81 105.42 50.76 C 104.93 50.86 103.96 51.05 103.47 51.15 C 102.51 51.69 101.55 52.22 100.58 52.74 C 98.64 53.05 96.94 54.03 95.25 54.96 C 94.96 54.64 94.38 54.00 94.10 53.68 L 93.91 54.66 C 93.32 54.96 92.12 55.56 91.53 55.87 C 90.91 55.91 89.67 56.00 89.06 56.05 L 88.96 56.77 C 87.81 57.02 86.68 57.29 85.55 57.58 C 83.86 58.52 82.23 59.60 80.38 60.19 C 78.53 60.03 78.09 57.92 77.24 56.63 C 76.94 55.56 76.61 54.49 76.26 53.43 C 76.13 52.96 75.87 52.01 75.74 51.53 C 75.06 50.26 75.00 48.82 74.83 47.43 C 74.26 46.46 73.69 45.50 73.11 44.54 C 73.02 43.56 72.93 42.59 72.83 41.61 C 72.65 40.56 72.29 38.47 72.11 37.42 C 71.30 37.67 70.49 37.91 69.68 38.15 C 70.48 39.13 71.05 40.24 71.38 41.47 C 71.80 43.18 72.17 44.90 72.78 46.56 C 72.86 47.06 73.02 48.05 73.11 48.55 C 73.71 49.52 74.31 50.49 74.92 51.46 C 74.97 52.47 75.03 53.49 75.09 54.50 C 75.66 55.48 76.22 56.47 76.76 57.47 C 77.00 58.64 77.43 59.73 78.05 60.75 C 73.74 63.37 69.07 65.35 64.62 67.72 C 63.35 68.31 62.07 68.89 60.84 69.55 C 60.09 70.34 59.36 71.14 58.64 71.96 C 58.07 71.98 56.93 72.03 56.36 72.05 C 54.09 73.56 52.10 75.48 49.65 76.70 C 47.82 77.73 46.10 78.95 44.39 80.17 C 43.75 79.17 43.12 78.16 42.60 77.09 L 42.04 76.96 C 42.01 76.35 41.95 75.14 41.93 74.54 C 39.10 71.83 39.43 67.46 37.04 64.43 C 37.10 65.86 37.20 67.29 37.32 68.72 C 38.35 70.32 39.20 72.03 40.04 73.73 L 38.78 74.39 C 39.79 75.35 40.78 76.32 41.77 77.30 C 42.08 77.92 42.69 79.17 42.99 79.79 L 41.75 80.40 C 42.17 80.74 43.01 81.42 43.43 81.76 C 42.68 81.95 41.19 82.32 40.44 82.51 C 38.68 83.67 37.20 85.20 35.67 86.64 C 31.34 89.53 27.60 93.25 23.45 96.41 C 22.27 98.04 20.94 99.55 19.80 101.20 C 23.18 100.39 24.21 96.64 27.07 95.05 C 32.13 91.57 35.87 86.01 41.69 83.80 C 42.12 83.29 42.99 82.27 43.43 81.76 C 44.09 83.01 44.67 84.30 45.26 85.59 C 46.90 88.46 48.26 91.47 49.72 94.43 C 50.37 95.77 51.03 97.10 51.68 98.44 C 52.54 99.82 53.45 101.16 54.26 102.57 C 56.69 106.62 59.29 110.58 62.27 114.26 C 61.21 115.80 60.31 117.62 58.44 118.29 C 55.30 119.83 52.96 122.63 49.54 123.70 C 47.33 125.21 45.04 126.61 42.60 127.73 C 42.11 127.99 41.13 128.50 40.64 128.76 C 39.34 129.24 37.91 130.52 36.47 129.72 C 35.37 128.38 34.42 126.93 33.35 125.58 C 32.36 123.91 31.13 122.35 30.72 120.41 C 29.62 119.16 28.54 117.90 27.61 116.53 C 26.10 114.32 24.96 111.90 23.63 109.59 C 25.38 110.26 27.16 110.92 29.01 111.26 L 28.97 110.34 C 28.35 110.04 27.09 109.42 26.46 109.12 C 25.91 109.08 24.81 109.01 24.26 108.98 C 22.60 107.01 21.23 104.82 19.61 102.82 L 21.43 102.95 L 19.54 100.99 C 17.45 102.86 15.30 104.80 14.24 107.48 C 12.45 110.29 10.68 113.14 9.57 116.31 C 8.53 115.19 7.90 113.85 7.80 112.32 C 7.37 111.90 6.51 111.06 6.07 110.64 C 5.97 108.91 6.16 107.08 5.29 105.50 C 4.86 102.99 3.22 99.96 4.80 97.62 C 3.53 95.54 4.10 93.02 3.98 90.71 C 3.64 89.69 3.34 88.65 3.05 87.60 C 3.75 88.23 4.43 88.87 5.11 89.52 C 5.15 86.77 5.81 84.07 6.58 81.44 C 7.11 80.05 7.77 78.71 8.50 77.41 C 9.76 79.64 10.63 82.07 11.24 84.55 C 11.75 85.51 12.26 86.47 12.78 87.43 C 14.23 90.70 14.69 94.38 16.66 97.42 C 17.42 98.64 17.71 99.99 17.53 101.46 C 18.19 101.00 18.83 100.52 19.47 100.04 C 18.69 98.95 17.92 97.84 17.18 96.72 C 16.63 95.30 16.06 93.89 15.63 92.43 C 14.98 90.46 14.25 88.50 13.74 86.48 C 12.93 84.85 12.11 83.22 11.29 81.59 C 11.06 79.77 9.98 78.31 8.80 76.96 L 11.13 77.98 C 8.20 74.99 12.04 71.58 14.02 69.19 C 13.65 68.94 12.93 68.46 12.56 68.21 C 14.75 68.34 15.54 66.35 16.66 64.93 C 18.48 62.45 20.80 60.41 22.97 58.25 C 25.59 56.11 27.84 53.59 30.29 51.27 C 32.45 51.27 33.89 49.66 35.39 48.37 C 36.83 47.51 38.11 46.44 39.37 45.35 C 40.82 44.82 42.22 44.14 43.52 43.31 C 44.86 42.79 46.18 42.24 47.52 41.71 C 49.76 40.40 52.11 39.30 54.50 38.27 C 56.24 37.94 57.92 37.39 59.56 36.73 C 60.86 36.22 62.19 35.79 63.51 35.33 C 64.55 34.97 65.58 34.57 66.60 34.15 C 67.75 34.07 68.89 34.00 70.04 33.93 C 69.99 34.83 69.87 36.62 69.82 37.52 C 70.64 36.76 71.46 36.00 72.28 35.24 L 70.49 34.50 C 72.79 33.39 75.29 32.84 77.74 32.15 C 77.89 32.36 78.17 32.78 78.32 32.99 C 81.51 30.88 85.70 32.50 89.29 32.01 C 88.88 31.50 88.06 30.48 87.65 29.97 C 85.14 32.38 81.04 29.62 78.53 31.95 C 78.15 31.65 77.40 31.05 77.02 30.75 L 76.95 32.00 C 75.49 31.98 74.02 31.95 72.56 31.91 C 71.98 32.44 71.40 32.97 70.83 33.51 L 71.17 30.66 C 69.77 31.84 68.33 33.01 66.50 33.40 C 64.83 33.82 63.14 34.18 61.47 34.64 C 60.50 34.98 59.54 35.34 58.58 35.71 C 57.25 36.37 55.90 36.98 54.46 37.35 C 51.66 38.06 49.11 39.41 46.56 40.72 C 45.23 41.38 43.91 42.06 42.57 42.72 C 40.85 43.57 39.13 44.45 37.39 45.27 C 36.09 46.49 34.76 47.74 33.08 48.42 C 33.00 46.29 32.99 44.15 32.99 42.01 C 32.44 41.99 31.34 41.95 30.79 41.93 C 32.10 43.03 32.17 43.78 30.98 44.18 C 32.30 45.72 31.96 47.79 32.06 49.66 C 29.93 50.47 27.45 51.21 26.62 53.60 C 22.64 56.18 19.57 59.89 16.33 63.30 C 15.34 65.13 13.85 66.60 12.56 68.21 C 11.64 69.68 10.85 71.22 9.96 72.71 C 9.27 71.40 8.53 70.14 7.78 68.87 L 9.31 68.95 C 7.86 66.24 7.37 62.29 8.80 59.42 C 8.87 58.93 9.02 57.94 9.10 57.44 C 10.16 55.75 11.27 54.10 12.36 52.43 C 13.99 50.94 14.34 48.84 14.44 46.74 C 14.93 47.30 15.43 47.87 15.92 48.43 C 16.25 45.71 18.86 44.21 20.21 42.01 C 21.84 39.37 25.12 38.44 26.82 35.82 C 28.10 33.94 30.44 32.48 32.71 33.52 L 30.44 34.58 C 31.15 35.36 32.59 36.92 33.31 37.70 L 32.33 35.43 C 32.67 34.46 32.99 33.49 33.30 32.51 C 33.54 31.95 34.01 30.85 34.25 30.29 C 38.14 27.91 42.63 26.79 46.43 24.25 C 46.94 24.00 47.96 23.50 48.46 23.25 C 51.69 22.55 54.78 21.17 58.10 20.95 C 60.40 20.78 62.64 20.11 64.71 19.09 C 66.19 20.49 68.52 19.03 70.23 18.83 C 70.18 20.34 69.71 21.70 68.83 22.89 C 69.44 23.17 70.05 23.44 70.67 23.71 C 70.81 22.14 70.92 20.57 71.06 19.00 C 75.67 19.08 80.30 18.84 84.91 19.07 C 85.27 19.26 85.99 19.64 86.35 19.83 C 88.13 18.90 90.12 20.25 91.99 20.19 L 92.00 19.07 C 91.40 19.01 90.20 18.88 89.60 18.82 C 87.33 17.36 84.33 18.72 82.20 16.99 C 81.97 19.03 80.04 16.12 79.32 18.02 C 78.52 17.00 77.42 17.10 76.01 18.29 C 77.52 16.18 76.04 12.38 78.47 11.16 C 81.99 11.09 85.99 10.14 89.15 12.13 C 89.10 11.60 89.01 10.53 88.96 9.99 C 85.46 9.96 81.90 10.29 78.45 9.45 C 78.06 9.61 77.28 9.93 76.89 10.09 C 76.93 9.32 77.00 7.78 77.03 7.01 C 77.59 7.02 78.71 7.03 79.26 7.04 C 77.10 5.55 77.55 3.16 76.88 0.96 L 76.15 0.97 C 75.30 3.94 75.28 7.03 76.16 9.99 C 74.44 9.99 72.72 10.00 71.00 10.00 L 71.00 10.99 C 72.46 10.99 73.91 11.00 75.37 11.00 C 73.27 13.01 71.38 15.22 69.89 17.72 C 67.39 17.31 64.91 18.06 62.49 18.63 C 60.12 19.76 57.55 20.07 54.95 20.21 C 52.46 20.97 50.05 22.11 47.39 22.20 C 46.47 22.90 45.57 24.90 44.46 23.06 C 41.77 26.51 37.12 26.86 33.65 29.25 C 35.49 26.22 37.91 23.69 40.43 21.24 C 41.46 20.98 42.49 20.72 43.51 20.45 C 44.51 19.71 45.49 18.95 46.46 18.18 C 47.83 17.71 49.20 17.23 50.57 16.78 C 51.52 16.26 52.47 15.74 53.42 15.22 C 55.34 14.99 57.19 14.49 59.01 13.85 L 58.97 12.67 C 58.35 12.96 57.11 13.56 56.50 13.86 C 55.48 13.94 54.46 14.03 53.44 14.12 C 52.51 14.67 51.59 15.20 50.65 15.73 C 47.63 16.36 44.82 17.85 42.50 19.88 C 42.00 19.93 41.00 20.04 40.50 20.10 C 39.05 21.59 37.19 22.51 35.29 23.29 C 33.38 25.08 31.63 27.12 29.26 28.34 C 26.64 31.01 23.58 33.20 20.98 35.89 C 19.41 37.14 19.85 39.75 17.72 40.39 L 16.67 41.00 C 17.65 41.04 18.63 41.12 19.61 41.24 C 18.27 42.69 16.84 44.15 15.59 45.72 L 17.05 41.34 C 15.36 43.23 13.98 45.37 12.74 47.57 C 12.04 49.01 11.14 50.34 10.08 51.54 C 10.05 52.06 10.01 53.12 9.99 53.65 C 9.49 54.07 8.51 54.92 8.02 55.35 C 7.99 55.89 7.94 56.96 7.91 57.50 C 7.61 58.02 7.01 59.04 6.71 59.56 C 6.57 60.73 3.70 62.92 6.09 63.22 C 5.45 64.28 4.84 65.36 4.24 66.44 C 3.95 67.73 3.48 68.95 2.84 70.11 L 4.26 69.78 C 1.98 72.86 2.51 76.86 1.75 80.41 C 0.86 82.47 1.14 84.83 0.00 86.80 L 0.00 0.00 M 72.19 4.17 C 72.87 4.86 72.87 4.86 72.19 4.17 M 66.86 9.96 L 67.09 10.96 C 65.51 10.79 64.05 11.01 62.98 12.25 L 62.82 10.62 C 62.12 11.02 60.71 11.82 60.01 12.22 C 60.00 12.70 59.97 13.65 59.96 14.12 C 62.55 12.32 66.54 13.14 68.34 10.08 L 66.86 9.96 M 69.13 10.21 C 67.61 13.41 72.27 10.50 69.13 10.21 M 89.96 9.85 C 89.97 10.38 89.99 11.44 90.00 11.97 C 90.64 12.00 91.93 12.05 92.58 12.08 C 93.67 13.06 95.21 13.21 96.53 13.72 C 98.20 11.90 99.87 16.13 101.44 14.23 L 101.92 13.75 C 101.55 13.46 100.79 12.87 100.42 12.58 C 98.91 12.78 96.23 9.81 95.78 12.07 C 94.74 11.40 93.68 10.76 92.60 10.17 C 91.71 11.53 90.83 10.38 89.96 9.85 M 69.99 25.45 L 70.04 26.17 C 70.19 25.96 70.49 25.53 70.64 25.32 L 69.99 25.45 M 69.40 26.16 L 69.35 26.90 L 69.99 27.05 L 70.04 26.17 L 69.40 26.16 M 69.99 27.05 L 70.00 28.00 L 70.64 27.89 L 70.64 27.13 L 69.99 27.05 M 69.36 28.11 L 69.36 28.87 L 70.01 28.95 L 70.00 28.00 L 69.36 28.11 M 70.01 28.95 L 69.96 29.83 L 70.61 29.83 L 70.65 29.10 L 70.01 28.95 M 69.36 30.68 L 70.01 30.55 L 69.96 29.83 C 69.81 30.04 69.51 30.47 69.36 30.68 M 89.19 30.20 C 89.87 30.88 89.87 30.88 89.19 30.20 M 89.74 32.00 C 94.15 32.06 98.56 31.91 102.97 32.04 C 103.49 32.31 104.52 32.86 105.03 33.14 C 105.02 32.60 105.01 31.53 105.00 31.00 C 102.65 30.98 100.30 31.05 97.95 31.00 C 96.69 31.46 95.65 29.39 94.56 30.74 C 93.70 29.54 92.88 30.52 92.06 31.16 L 91.83 29.61 C 91.31 30.21 90.26 31.40 89.74 32.00 M 110.20 35.01 C 109.94 36.42 109.44 38.44 110.89 39.39 C 111.09 40.73 110.72 42.28 111.68 43.39 C 112.19 44.58 112.34 46.51 113.85 46.83 C 113.95 45.27 112.84 43.93 112.78 42.37 C 110.80 41.70 113.96 40.52 112.33 39.58 C 111.11 38.31 111.53 36.03 110.20 35.01 M 31.33 37.31 L 31.33 37.97 L 32.00 38.00 L 31.98 37.33 L 31.33 37.31 M 32.00 38.00 L 32.02 38.67 L 32.67 38.68 L 32.67 38.03 L 32.00 38.00 M 31.07 39.64 L 31.11 40.50 C 32.96 42.65 33.07 38.20 31.07 39.64 M 32.75 51.72 C 31.85 53.41 34.78 55.03 33.23 56.51 C 33.89 57.88 34.61 59.22 35.31 60.58 C 35.92 61.61 36.19 62.75 36.11 64.00 C 36.62 64.01 37.62 64.03 38.12 64.04 C 37.28 62.98 36.96 61.72 36.79 60.41 C 35.41 59.15 36.55 56.94 35.28 55.61 C 34.45 54.41 34.04 53.08 34.07 51.64 C 33.74 51.66 33.08 51.70 32.75 51.72 M 152.67 97.97 C 153.27 96.63 154.84 95.54 154.96 94.09 C 153.38 93.61 150.31 97.41 152.67 97.97 M 168.14 95.28 C 168.16 95.68 168.21 96.48 168.23 96.88 C 169.95 97.47 170.61 94.26 168.70 94.07 C 168.56 94.37 168.28 94.98 168.14 95.28 M 149.00 98.94 C 150.53 99.48 150.32 96.02 149.73 95.13 C 148.76 95.96 148.52 97.23 149.00 98.94 M 6.61 100.12 C 8.38 101.90 10.36 103.46 12.07 105.31 C 13.05 102.15 8.69 101.72 7.93 99.92 L 6.61 100.12 M 144.18 102.19 C 144.86 102.87 144.86 102.87 144.18 102.19 M 137.06 105.39 C 137.52 107.09 140.10 105.35 140.93 104.63 C 140.54 102.91 137.85 104.63 137.06 105.39 M 135.20 106.19 C 135.88 106.88 135.88 106.88 135.20 106.19 M 131.20 107.19 C 131.88 107.88 131.88 107.88 131.20 107.19 M 126.06 109.82 C 127.19 109.49 129.65 109.58 129.89 108.20 C 128.67 107.09 125.87 108.12 126.06 109.82 M 34.11 111.20 C 32.62 114.42 37.25 111.48 34.11 111.20 M 36.05 111.16 C 35.47 112.58 38.88 114.26 38.94 112.34 C 38.14 111.45 37.17 111.06 36.05 111.16 M 108.04 113.86 C 109.15 113.93 110.11 113.54 110.94 112.69 C 110.99 110.74 107.43 112.41 108.04 113.86 M 44.17 113.80 C 45.56 114.57 46.44 114.37 46.82 113.20 C 45.43 112.43 44.54 112.63 44.17 113.80 M 48.18 113.19 C 48.88 113.86 48.88 113.86 48.18 113.19 M 99.41 113.36 C 99.11 113.60 98.51 114.09 98.21 114.33 L 98.54 114.91 C 100.07 116.07 101.69 113.45 99.41 113.36 M 101.28 113.27 L 101.22 113.92 L 101.88 114.01 L 101.92 113.35 L 101.28 113.27 M 101.88 114.01 L 101.97 114.73 C 102.35 114.68 103.10 114.59 103.47 114.54 C 105.31 112.99 102.37 112.36 101.88 114.01 M 51.70 114.00 C 52.56 115.03 53.46 116.03 54.39 117.02 C 51.50 116.45 49.36 119.66 49.93 122.30 C 52.51 122.06 53.89 119.61 54.73 117.44 C 55.00 115.93 56.66 115.48 58.01 115.98 L 57.99 115.22 C 56.00 114.30 53.91 113.71 51.70 114.00 M 94.27 113.95 C 93.94 114.28 93.28 114.95 92.95 115.28 C 92.96 117.68 96.68 113.93 94.27 113.95 M 71.18 115.18 C 71.86 115.87 71.86 115.87 71.18 115.18 M 73.18 115.20 C 73.88 115.87 73.88 115.87 73.18 115.20 M 75.05 115.07 C 74.95 116.44 75.58 117.06 76.94 116.94 C 77.05 115.56 76.42 114.94 75.05 115.07 M 81.20 115.18 C 81.87 115.88 81.87 115.88 81.20 115.18 M 83.20 115.19 C 83.88 115.87 83.88 115.87 83.20 115.19 M 85.18 115.19 C 85.86 115.88 85.86 115.88 85.18 115.19 M 89.17 115.79 C 89.83 115.79 91.17 115.79 91.83 115.79 C 92.23 114.38 88.77 114.38 89.17 115.79 M 45.11 118.07 C 45.12 119.19 46.13 120.34 45.08 121.40 C 45.16 123.08 47.51 120.99 47.29 120.04 C 47.07 118.67 46.34 118.02 45.11 118.07 M 38.96 156.54 C 39.81 158.10 40.55 158.25 41.18 157.00 C 40.58 155.79 39.84 155.64 38.96 156.54 Z" />
<path fill="#ffffff" opacity="1.00" d=" M 71.79 18.17 C 71.83 15.60 74.39 14.32 75.98 12.69 C 75.99 14.22 76.00 15.76 76.00 17.29 L 75.06 16.83 L 74.97 18.17 C 74.00 16.79 72.90 17.16 71.79 18.17 Z" />
<path fill="#ffffff" opacity="1.00" d=" M 111.83 24.07 C 112.32 22.75 115.45 19.96 116.36 21.96 C 116.93 21.98 118.08 22.01 118.65 22.03 C 120.90 24.26 122.78 27.22 126.10 27.94 C 125.49 27.17 124.26 25.62 123.64 24.84 L 125.16 25.01 L 124.86 26.21 L 125.60 25.98 C 128.51 28.67 132.10 30.69 134.26 34.16 C 135.13 34.81 135.94 35.55 136.38 36.58 C 136.57 37.27 136.93 38.64 137.11 39.32 C 133.41 35.60 130.48 30.92 125.99 27.93 C 128.11 32.57 133.03 35.26 135.20 39.93 C 134.33 39.87 132.59 39.74 131.73 39.68 C 132.22 39.18 132.72 38.68 133.21 38.17 C 129.97 35.92 126.76 33.58 123.60 31.20 C 122.33 31.18 121.08 30.81 120.31 29.75 C 118.07 27.01 113.76 27.07 111.83 24.07 Z" />
<path fill="#ffffff" opacity="1.00" d=" M 123.64 24.84 C 123.12 24.08 123.12 24.08 123.64 24.84 Z" />
<path fill="#ffffff" opacity="1.00" d=" M 111.34 25.78 C 113.97 27.56 117.30 28.25 119.48 30.66 C 120.26 31.62 121.50 31.84 122.60 32.23 C 125.28 34.59 129.73 35.85 130.84 39.40 C 129.61 38.84 128.47 38.10 127.15 37.79 L 126.86 37.11 C 125.20 37.27 123.77 36.41 122.36 35.71 C 119.53 33.42 115.25 34.37 112.63 31.93 C 112.28 32.24 111.58 32.85 111.23 33.16 C 110.25 30.81 108.96 27.79 111.34 25.78 Z" />
<path fill="#ffffff" opacity="1.00" d=" M 29.31 29.25 C 30.84 28.86 31.90 27.63 33.11 26.70 C 34.06 31.85 27.54 32.19 25.32 35.54 C 24.61 37.31 22.27 37.44 21.64 39.33 C 21.36 38.76 21.09 38.20 20.84 37.62 C 23.77 34.94 26.48 32.03 29.31 29.25 Z" />
<path fill="#ffffff" opacity="1.00" d=" M 138.69 38.83 C 138.16 38.10 138.16 38.10 138.69 38.83 Z" />
<path fill="#ffffff" opacity="1.00" d=" M 138.69 38.83 C 139.21 38.89 140.26 39.00 140.78 39.06 C 141.07 39.65 141.66 40.82 141.95 41.41 C 141.98 42.61 142.00 43.81 142.02 45.01 L 141.22 44.99 C 140.98 44.40 140.51 43.21 140.27 42.62 C 139.67 41.38 139.08 40.14 138.69 38.83 Z" />
<path fill="#ffffff" opacity="1.00" d=" M 137.18 40.20 C 137.88 40.87 137.88 40.87 137.18 40.20 Z" />
<path fill="#ffffff" opacity="1.00" d=" M 141.87 46.32 C 142.68 45.56 143.62 45.06 144.71 44.84 C 145.21 46.29 145.79 47.70 146.22 49.17 C 144.23 49.30 143.04 47.65 141.87 46.32 Z" />
<path fill="#ffffff" opacity="1.00" d=" M 146.18 50.20 C 146.87 50.88 146.87 50.88 146.18 50.20 Z" />
<path fill="#ffffff" opacity="1.00" d=" M 137.86 52.33 C 138.77 51.54 139.81 51.02 140.98 50.77 C 140.73 56.13 141.67 61.67 140.38 66.88 C 140.70 67.12 141.36 67.59 141.68 67.83 C 142.27 62.57 141.90 57.27 142.00 52.00 L 143.08 51.99 C 143.01 52.82 142.86 54.47 142.78 55.30 C 143.98 53.84 145.44 54.35 146.42 55.76 C 147.55 54.74 148.63 55.94 149.55 56.61 L 147.18 56.50 C 147.61 58.62 148.52 60.57 149.68 62.38 C 150.31 63.54 151.00 64.65 151.67 65.79 C 152.27 65.76 153.47 65.71 154.08 65.68 C 153.09 67.42 152.70 69.37 152.72 71.36 C 153.51 70.84 154.31 70.34 155.13 69.87 C 154.80 70.84 154.38 71.76 153.88 72.65 C 154.24 72.96 154.96 73.58 155.33 73.89 L 153.91 74.03 C 154.75 75.40 155.22 76.94 155.71 78.46 C 154.64 80.13 156.39 82.06 156.93 83.68 C 155.97 85.15 155.01 86.63 153.72 87.84 C 152.52 87.82 151.73 88.74 150.85 89.38 C 151.08 85.82 151.03 82.25 150.97 78.69 C 150.36 79.43 147.33 81.01 150.15 81.29 C 149.83 81.64 149.19 82.35 148.87 82.70 C 151.72 82.85 147.81 84.49 149.75 85.46 C 148.43 86.36 149.79 87.28 150.15 88.19 C 149.51 87.92 148.23 87.37 147.58 87.09 C 147.05 87.05 145.99 86.96 145.45 86.91 C 143.25 84.59 139.78 83.71 137.89 81.13 C 138.05 80.77 138.36 80.06 138.52 79.70 C 138.86 77.87 139.66 76.18 140.32 74.45 C 140.96 72.50 140.62 70.11 142.47 68.71 C 139.34 68.38 139.90 71.82 138.84 73.76 L 137.45 74.46 L 139.17 74.97 C 138.25 76.62 136.96 78.20 136.86 80.17 C 132.49 77.64 130.45 72.57 126.78 69.20 C 124.33 67.20 127.57 64.17 129.77 63.76 C 130.05 61.41 132.94 60.58 133.22 58.22 C 135.23 57.82 137.01 56.09 137.21 54.00 C 137.76 54.00 138.84 54.00 139.39 54.00 L 137.86 52.33 M 143.79 55.12 C 144.23 57.55 146.29 59.85 145.70 62.38 C 146.28 62.56 147.46 62.92 148.04 63.10 C 146.67 60.44 146.44 56.95 143.79 55.12 M 146.94 63.54 C 147.04 64.94 147.18 66.34 147.37 67.73 C 148.27 69.24 148.12 71.05 148.37 72.74 C 149.50 74.23 148.82 76.28 149.03 78.01 L 150.00 78.00 C 150.00 76.34 150.00 74.68 150.00 73.03 L 149.00 72.99 L 149.00 72.03 L 150.17 72.09 C 148.63 70.68 148.93 68.54 149.05 66.68 C 148.33 65.65 147.67 64.57 146.94 63.54 Z" />
<path fill="#ffffff" opacity="1.00" d=" M 147.06 52.06 C 148.43 51.95 149.05 52.58 148.93 53.95 C 147.56 54.05 146.94 53.42 147.06 52.06 Z" />
<path fill="#ffffff" opacity="1.00" d=" M 148.89 58.69 C 149.15 56.50 151.02 59.94 151.97 60.27 C 151.99 60.70 152.02 61.57 152.03 62.00 L 153.15 62.00 L 152.85 63.26 C 151.02 62.16 150.88 59.62 148.89 58.69 Z" />
<path fill="#ffffff" opacity="1.00" d=" M 67.39 67.25 C 70.86 66.30 73.81 64.10 77.15 62.83 C 78.84 62.48 79.88 64.11 80.87 65.17 C 81.08 66.28 81.31 67.38 81.56 68.48 C 82.52 70.26 83.54 72.01 84.89 73.52 C 84.95 74.01 85.07 74.99 85.12 75.49 C 86.33 77.47 87.43 79.52 88.31 81.68 C 90.25 83.20 91.91 85.10 92.67 87.50 C 93.36 88.63 94.21 89.66 95.12 90.63 C 95.23 93.90 91.54 94.75 89.36 96.28 C 88.14 97.41 86.92 98.55 85.66 99.64 C 83.72 100.62 82.20 102.21 80.39 103.39 C 75.98 106.75 71.57 110.22 66.64 112.78 C 65.57 113.14 64.60 114.05 63.44 113.94 C 61.88 112.34 60.88 110.31 59.70 108.44 C 58.49 106.86 57.42 105.19 56.31 103.54 C 55.46 102.17 54.53 100.85 53.66 99.50 C 53.45 98.96 53.03 97.89 52.82 97.36 C 52.01 96.05 51.17 94.77 50.26 93.54 C 49.97 92.53 49.68 91.54 49.37 90.55 C 47.80 87.79 46.60 84.83 44.82 82.20 C 45.56 81.14 46.40 80.16 47.28 79.22 C 48.76 78.47 50.15 77.57 51.59 76.76 C 53.47 75.90 55.05 74.57 56.46 73.08 C 56.96 73.02 57.97 72.91 58.47 72.86 C 59.12 72.56 60.41 71.96 61.06 71.66 C 61.00 71.13 60.89 70.08 60.84 69.55 C 61.25 69.93 62.09 70.68 62.51 71.06 C 63.89 69.49 65.46 68.09 67.39 67.25 Z" />
<path fill="#ffffff" opacity="1.00" d=" M 6.10 65.00 L 6.99 65.00 C 7.26 66.78 6.28 69.05 7.81 70.44 C 7.98 71.65 8.18 72.88 9.06 73.81 L 7.96 74.20 C 10.33 75.78 6.99 77.06 6.12 78.34 C 6.18 79.48 5.90 80.48 5.28 81.37 C 5.11 82.65 4.75 83.92 3.82 84.88 L 5.21 85.19 C 4.35 86.32 3.36 87.32 1.81 87.18 C 2.57 86.18 3.47 85.14 1.96 84.31 C 4.86 82.45 1.04 77.25 4.23 75.54 C 3.92 75.31 3.30 74.85 2.99 74.62 C 3.50 73.20 4.14 71.88 4.92 70.66 C 4.96 70.09 5.05 68.95 5.09 68.39 C 5.97 67.50 6.30 66.37 6.10 65.00 Z" />
<path fill="#ffffff" opacity="1.00" d=" M 154.19 68.19 C 154.86 68.89 154.86 68.89 154.19 68.19 Z" />
<path fill="#ffffff" opacity="1.00" d=" M 61.53 117.62 C 62.55 117.13 63.62 116.90 64.77 116.93 C 64.77 119.57 68.14 120.37 68.23 122.98 C 68.61 122.99 69.37 123.02 69.75 123.03 C 70.41 127.79 75.69 129.59 77.23 133.74 C 78.76 134.02 79.75 135.25 80.79 136.29 C 81.62 139.37 84.75 140.90 87.32 142.33 C 85.21 143.99 82.99 145.53 80.59 146.75 C 78.72 147.57 76.98 148.72 74.99 149.24 L 75.05 149.90 C 71.79 149.52 69.51 152.69 66.27 152.57 C 64.91 152.43 63.63 153.02 62.29 153.15 C 62.05 153.41 61.56 153.93 61.32 154.19 C 60.87 151.49 58.10 155.73 56.58 153.38 C 53.38 152.01 52.04 148.37 49.25 146.71 C 48.74 145.06 47.40 143.89 46.58 142.41 C 42.88 141.18 43.03 135.55 39.21 134.80 C 39.19 133.62 38.34 132.81 37.73 131.91 L 39.09 131.81 L 38.93 130.13 C 40.43 130.07 41.98 130.01 42.89 128.63 C 43.90 127.45 45.67 128.22 47.00 127.95 C 47.00 127.52 47.01 126.67 47.01 126.24 C 48.55 125.80 49.98 125.05 51.40 124.32 C 53.30 123.43 54.60 121.38 57.00 121.88 C 57.00 121.47 57.00 120.65 57.01 120.24 C 58.85 120.01 59.93 118.36 61.53 117.62 Z" />
<path fill="#ffffff" opacity="1.00" d=" M 117.46 116.71 C 122.06 120.58 127.04 123.96 132.61 126.29 C 133.11 126.55 134.10 127.07 134.60 127.32 C 135.79 127.90 137.06 128.27 138.39 128.42 C 137.81 129.48 137.18 130.52 136.63 131.60 C 136.41 132.15 135.97 133.24 135.76 133.79 C 133.33 136.04 130.86 138.65 129.80 141.80 C 127.50 141.86 127.03 144.32 125.76 145.76 C 122.29 149.13 118.43 152.22 114.02 154.28 C 114.01 154.73 113.99 155.64 113.98 156.10 C 112.37 156.77 110.70 154.17 109.51 155.91 C 108.39 154.73 107.17 153.73 105.45 153.82 C 104.10 153.09 102.77 152.34 101.41 151.64 C 100.87 151.42 99.80 150.97 99.27 150.74 C 98.45 149.82 97.51 149.00 96.27 148.77 C 95.97 146.78 93.72 146.39 92.16 145.76 C 91.20 144.71 90.01 143.76 89.79 142.28 C 92.48 140.99 95.61 139.41 97.20 136.76 C 101.92 134.91 104.30 129.74 108.76 127.76 C 110.61 123.42 115.63 121.23 117.46 116.71 Z" />
<path fill="#ffffff" opacity="1.00" d=" M 140.28 127.77 C 140.80 128.08 141.85 128.70 142.37 129.01 C 143.62 127.43 145.81 128.25 147.49 127.82 C 143.48 131.30 142.25 136.85 138.19 140.29 C 135.87 142.26 134.15 144.98 131.41 146.40 C 130.75 147.68 129.78 148.74 128.87 149.83 C 125.44 150.89 122.95 154.18 119.41 155.32 C 118.28 155.99 117.04 156.23 115.68 156.05 C 117.36 152.51 121.68 151.95 124.08 149.11 C 128.88 143.75 133.66 138.36 137.89 132.55 C 137.28 130.35 140.60 129.98 140.28 127.77 Z" />
<path fill="#ffffff" opacity="1.00" d=" M 36.67 132.06 C 37.88 134.78 40.42 136.54 41.89 139.09 C 44.35 143.19 48.33 146.08 50.95 150.08 C 52.11 151.94 55.06 152.56 55.20 154.98 C 50.75 154.38 45.15 156.71 41.68 152.99 C 40.15 156.03 38.83 150.01 37.56 152.97 C 36.41 151.70 35.13 150.66 33.30 150.91 C 32.29 149.80 31.01 148.80 30.77 147.23 C 28.71 146.95 27.57 145.10 26.65 143.44 C 25.37 141.08 22.26 139.97 21.78 137.18 C 24.14 137.08 26.20 135.75 28.59 135.84 C 31.06 134.06 34.50 134.30 36.67 132.06 Z" />
<path fill="#ffffff" opacity="1.00" d=" M 20.17 138.19 C 20.87 138.87 20.87 138.87 20.17 138.19 Z" />
<path fill="#ffffff" opacity="1.00" d=" M 78.19 149.84 C 81.06 147.32 84.83 146.15 87.73 143.65 C 88.63 144.31 89.52 144.98 90.41 145.65 C 93.20 146.75 94.66 149.64 97.44 150.74 C 98.48 151.32 99.48 151.96 100.48 152.60 C 102.41 153.35 104.03 154.63 105.65 155.90 L 106.38 155.01 C 107.46 155.93 108.59 156.80 109.88 157.41 L 110.03 157.98 C 109.40 158.00 108.12 158.05 107.49 158.07 C 106.53 158.65 105.57 159.21 104.60 159.78 C 104.09 160.00 103.07 160.44 102.56 160.66 C 101.50 161.18 100.46 161.72 99.43 162.28 C 99.80 162.81 100.18 163.34 100.55 163.88 C 98.19 163.81 95.97 162.78 93.60 162.62 C 94.11 163.41 94.61 164.20 95.11 165.00 C 93.64 164.60 92.16 163.86 90.62 164.39 C 87.90 165.04 84.90 164.50 82.39 165.88 C 79.44 166.07 76.49 166.03 73.54 165.92 C 72.54 165.35 71.53 164.82 70.50 164.31 C 70.34 164.24 70.01 164.08 69.85 164.01 C 67.59 162.71 64.66 161.99 63.57 159.35 C 61.87 158.27 60.17 157.19 58.48 156.10 C 59.80 155.60 61.12 155.11 62.45 154.63 C 63.84 154.14 65.27 153.79 66.71 153.52 C 69.49 153.05 72.05 151.89 74.50 150.55 C 75.72 150.25 76.95 150.02 78.19 149.84 Z" />
<path fill="#ffffff" opacity="1.00" d=" M 96.18 164.19 C 96.87 164.87 96.87 164.87 96.18 164.19 Z" />
</g>
<g id="#000000ff">
<path fill="#000000" opacity="1.00" d=" M 71.13 0.00 L 72.68 0.00 C 72.76 0.73 72.91 2.20 72.98 2.94 C 71.57 3.00 70.47 1.25 71.13 0.00 Z" />
<path fill="#000000" opacity="1.00" d=" M 76.15 0.97 L 76.88 0.96 C 77.55 3.16 77.10 5.55 79.26 7.04 C 78.71 7.03 77.59 7.02 77.03 7.01 C 77.00 7.78 76.93 9.32 76.89 10.09 C 77.28 9.93 78.06 9.61 78.45 9.45 C 81.90 10.29 85.46 9.96 88.96 9.99 C 89.01 10.53 89.10 11.60 89.15 12.13 C 85.99 10.14 81.99 11.09 78.47 11.16 C 76.04 12.38 77.52 16.18 76.01 18.29 C 77.42 17.10 78.52 17.00 79.32 18.02 C 80.04 16.12 81.97 19.03 82.20 16.99 C 84.33 18.72 87.33 17.36 89.60 18.82 C 90.20 18.88 91.40 19.01 92.00 19.07 L 91.99 20.19 C 90.12 20.25 88.13 18.90 86.35 19.83 C 85.99 19.64 85.27 19.26 84.91 19.07 C 80.30 18.84 75.67 19.08 71.06 19.00 C 70.92 20.57 70.81 22.14 70.67 23.71 C 70.05 23.44 69.44 23.17 68.83 22.89 C 69.71 21.70 70.18 20.34 70.23 18.83 C 68.52 19.03 66.19 20.49 64.71 19.09 C 62.64 20.11 60.40 20.78 58.10 20.95 C 54.78 21.17 51.69 22.55 48.46 23.25 C 47.96 23.50 46.94 24.00 46.43 24.25 C 42.63 26.79 38.14 27.91 34.25 30.29 C 34.01 30.85 33.54 31.95 33.30 32.51 C 32.99 33.49 32.67 34.46 32.33 35.43 L 33.31 37.70 C 32.59 36.92 31.15 35.36 30.44 34.58 L 32.71 33.52 C 30.44 32.48 28.10 33.94 26.82 35.82 C 25.12 38.44 21.84 39.37 20.21 42.01 C 18.86 44.21 16.25 45.71 15.92 48.43 C 15.43 47.87 14.93 47.30 14.44 46.74 C 14.34 48.84 13.99 50.94 12.36 52.43 C 11.27 54.10 10.16 55.75 9.10 57.44 C 9.02 57.94 8.87 58.93 8.80 59.42 C 7.37 62.29 7.86 66.24 9.31 68.95 L 7.78 68.87 C 8.53 70.14 9.27 71.40 9.96 72.71 C 10.85 71.22 11.64 69.68 12.56 68.21 C 12.93 68.46 13.65 68.94 14.02 69.19 C 12.04 71.58 8.20 74.99 11.13 77.98 L 8.80 76.96 C 9.98 78.31 11.06 79.77 11.29 81.59 C 12.11 83.22 12.93 84.85 13.74 86.48 C 14.25 88.50 14.98 90.46 15.63 92.43 C 16.06 93.89 16.63 95.30 17.18 96.72 C 17.92 97.84 18.69 98.95 19.47 100.04 C 18.83 100.52 18.19 101.00 17.53 101.46 C 17.71 99.99 17.42 98.64 16.66 97.42 C 14.69 94.38 14.23 90.70 12.78 87.43 C 12.26 86.47 11.75 85.51 11.24 84.55 C 10.63 82.07 9.76 79.64 8.50 77.41 C 7.77 78.71 7.11 80.05 6.58 81.44 C 5.81 84.07 5.15 86.77 5.11 89.52 C 4.43 88.87 3.75 88.23 3.05 87.60 C 3.34 88.65 3.64 89.69 3.98 90.71 C 4.10 93.02 3.53 95.54 4.80 97.62 C 3.22 99.96 4.86 102.99 5.29 105.50 C 6.16 107.08 5.97 108.91 6.07 110.64 C 6.51 111.06 7.37 111.90 7.80 112.32 C 7.90 113.85 8.53 115.19 9.57 116.31 C 10.68 113.14 12.45 110.29 14.24 107.48 C 15.30 104.80 17.45 102.86 19.54 100.99 L 21.43 102.95 L 19.61 102.82 C 21.23 104.82 22.60 107.01 24.26 108.98 C 24.81 109.01 25.91 109.08 26.46 109.12 C 27.09 109.42 28.35 110.04 28.97 110.34 L 29.01 111.26 C 27.16 110.92 25.38 110.26 23.63 109.59 C 24.96 111.90 26.10 114.32 27.61 116.53 C 28.54 117.90 29.62 119.16 30.72 120.41 C 31.13 122.35 32.36 123.91 33.35 125.58 C 34.42 126.93 35.37 128.38 36.47 129.72 C 37.91 130.52 39.34 129.24 40.64 128.76 C 41.13 128.50 42.11 127.99 42.60 127.73 C 45.04 126.61 47.33 125.21 49.54 123.70 C 52.96 122.63 55.30 119.83 58.44 118.29 C 60.31 117.62 61.21 115.80 62.27 114.26 C 59.29 110.58 56.69 106.62 54.26 102.57 C 53.45 101.16 52.54 99.82 51.68 98.44 C 51.03 97.10 50.37 95.77 49.72 94.43 C 48.26 91.47 46.90 88.46 45.26 85.59 C 44.67 84.30 44.09 83.01 43.43 81.76 C 43.01 81.42 42.17 80.74 41.75 80.40 L 42.99 79.79 C 42.69 79.17 42.08 77.92 41.77 77.30 C 40.78 76.32 39.79 75.35 38.78 74.39 L 40.04 73.73 C 39.20 72.03 38.35 70.32 37.32 68.72 C 37.20 67.29 37.10 65.86 37.04 64.43 C 39.43 67.46 39.10 71.83 41.93 74.54 C 41.95 75.14 42.01 76.35 42.04 76.96 L 42.60 77.09 C 43.12 78.16 43.75 79.17 44.39 80.17 C 46.10 78.95 47.82 77.73 49.65 76.70 C 52.10 75.48 54.09 73.56 56.36 72.05 C 56.93 72.03 58.07 71.98 58.64 71.96 C 59.36 71.14 60.09 70.34 60.84 69.55 C 60.89 70.08 61.00 71.13 61.06 71.66 C 60.41 71.96 59.12 72.56 58.47 72.86 C 57.97 72.91 56.96 73.02 56.46 73.08 C 55.05 74.57 53.47 75.90 51.59 76.76 C 50.15 77.57 48.76 78.47 47.28 79.22 C 46.40 80.16 45.56 81.14 44.82 82.20 C 46.60 84.83 47.80 87.79 49.37 90.55 C 49.68 91.54 49.97 92.53 50.26 93.54 C 51.17 94.77 52.01 96.05 52.82 97.36 C 53.03 97.89 53.45 98.96 53.66 99.50 C 54.53 100.85 55.46 102.17 56.31 103.54 C 57.42 105.19 58.49 106.86 59.70 108.44 C 60.88 110.31 61.88 112.34 63.44 113.94 C 64.60 114.05 65.57 113.14 66.64 112.78 C 71.57 110.22 75.98 106.75 80.39 103.39 C 82.20 102.21 83.72 100.62 85.66 99.64 C 86.92 98.55 88.14 97.41 89.36 96.28 C 91.54 94.75 95.23 93.90 95.12 90.63 C 94.21 89.66 93.36 88.63 92.67 87.50 C 91.91 85.10 90.25 83.20 88.31 81.68 C 87.43 79.52 86.33 77.47 85.12 75.49 C 85.07 74.99 84.95 74.01 84.89 73.52 C 83.54 72.01 82.52 70.26 81.56 68.48 C 81.31 67.38 81.08 66.28 80.87 65.17 C 79.88 64.11 78.84 62.48 77.15 62.83 C 73.81 64.10 70.86 66.30 67.39 67.25 C 65.46 68.09 63.89 69.49 62.51 71.06 C 62.09 70.68 61.25 69.93 60.84 69.55 C 62.07 68.89 63.35 68.31 64.62 67.72 C 69.07 65.35 73.74 63.37 78.05 60.75 C 77.43 59.73 77.00 58.64 76.76 57.47 C 76.22 56.47 75.66 55.48 75.09 54.50 C 75.03 53.49 74.97 52.47 74.92 51.46 C 74.31 50.49 73.71 49.52 73.11 48.55 C 73.02 48.05 72.86 47.06 72.78 46.56 C 72.17 44.90 71.80 43.18 71.38 41.47 C 71.05 40.24 70.48 39.13 69.68 38.15 C 70.49 37.91 71.30 37.67 72.11 37.42 C 72.29 38.47 72.65 40.56 72.83 41.61 C 72.93 42.59 73.02 43.56 73.11 44.54 C 73.69 45.50 74.26 46.46 74.83 47.43 C 75.00 48.82 75.06 50.26 75.74 51.53 C 75.87 52.01 76.13 52.96 76.26 53.43 C 76.61 54.49 76.94 55.56 77.24 56.63 C 78.09 57.92 78.53 60.03 80.38 60.19 C 82.23 59.60 83.86 58.52 85.55 57.58 C 86.68 57.29 87.81 57.02 88.96 56.77 L 89.06 56.05 C 89.67 56.00 90.91 55.91 91.53 55.87 C 92.12 55.56 93.32 54.96 93.91 54.66 L 94.10 53.68 C 94.38 54.00 94.96 54.64 95.25 54.96 C 96.94 54.03 98.64 53.05 100.58 52.74 C 101.55 52.22 102.51 51.69 103.47 51.15 C 103.96 51.05 104.93 50.86 105.42 50.76 C 108.04 49.81 110.96 50.05 113.37 48.43 C 115.51 48.40 117.81 48.20 119.66 47.01 C 120.07 47.51 120.89 48.50 121.30 49.00 C 119.53 49.00 117.76 49.00 115.99 49.00 C 116.00 50.20 116.01 51.41 116.02 52.61 C 116.94 53.50 117.85 54.39 118.76 55.30 C 119.82 57.80 121.10 60.20 122.32 62.63 C 123.33 63.83 124.41 65.00 125.13 66.42 C 130.14 60.25 136.34 55.04 140.22 48.03 C 138.38 47.81 136.20 48.54 134.65 47.20 C 130.42 48.17 125.90 47.51 121.73 48.97 C 122.31 48.24 122.90 47.52 123.50 46.81 C 125.64 46.99 127.97 47.50 129.79 46.03 C 131.99 45.98 134.20 45.98 136.40 46.13 C 137.16 46.41 138.67 46.99 139.43 47.28 C 138.58 46.24 137.67 45.25 136.74 44.28 C 135.65 43.70 134.59 43.06 133.55 42.40 C 132.53 41.71 131.53 41.00 130.55 40.28 C 126.61 38.41 122.11 37.71 118.52 35.27 C 115.76 34.30 112.91 34.03 110.03 33.87 L 109.46 33.34 C 108.75 33.33 107.32 33.29 106.60 33.27 C 106.43 32.68 106.10 31.51 105.93 30.92 C 106.87 31.43 107.81 31.93 108.76 32.44 C 109.11 29.98 108.48 27.21 110.06 25.08 C 109.41 24.90 108.12 24.54 107.48 24.36 C 103.22 22.65 98.79 21.34 94.21 20.84 C 93.84 20.38 93.08 19.48 92.70 19.02 L 93.99 18.97 L 94.05 19.96 C 95.18 20.01 96.31 20.07 97.44 20.14 C 98.81 21.27 100.60 20.93 102.23 21.05 C 104.13 22.26 106.21 23.15 108.49 23.24 C 109.10 23.50 110.30 24.03 110.90 24.29 C 110.94 23.81 111.01 22.85 111.05 22.36 C 112.19 22.01 113.20 21.43 114.05 20.63 C 113.00 19.00 111.26 18.10 109.60 17.23 C 109.08 16.97 108.05 16.47 107.54 16.22 C 105.88 15.81 104.26 15.19 102.53 15.16 C 102.73 14.32 102.92 13.48 103.11 12.64 C 104.18 13.38 105.27 14.10 106.37 14.79 C 107.45 15.08 108.52 15.41 109.58 15.76 C 110.06 15.86 111.03 16.05 111.52 16.15 C 112.47 16.68 113.43 17.20 114.40 17.72 C 116.57 18.69 118.58 19.98 120.53 21.33 C 121.52 21.77 122.51 22.21 123.50 22.63 C 125.28 23.76 126.80 25.22 128.33 26.64 C 131.71 28.47 133.95 31.71 136.74 34.25 C 138.65 36.33 141.25 37.95 142.33 40.67 C 144.27 44.04 147.02 46.88 148.74 50.40 C 149.48 53.36 152.99 55.47 152.44 58.66 C 152.89 60.48 154.08 61.98 155.04 63.56 C 154.68 63.85 153.96 64.45 153.61 64.74 C 153.99 64.87 154.77 65.12 155.16 65.25 C 155.58 67.02 155.95 68.80 156.17 70.60 C 156.73 71.49 157.29 72.39 157.86 73.29 C 156.97 74.77 157.70 76.53 157.76 78.13 C 158.13 79.93 157.62 82.08 158.99 83.55 C 158.69 83.83 158.11 84.39 157.81 84.67 L 159.12 85.30 C 158.82 85.60 158.21 86.20 157.90 86.50 C 158.22 86.77 158.86 87.32 159.18 87.60 C 158.79 87.95 158.01 88.65 157.61 89.00 C 159.54 89.00 161.48 88.99 163.41 88.91 C 164.54 87.44 165.76 88.26 166.90 89.07 C 167.01 88.77 167.23 88.19 167.34 87.89 C 168.39 88.73 169.61 89.17 171.00 89.20 L 171.02 89.83 C 169.79 90.09 168.47 91.28 167.34 90.12 C 166.45 91.18 165.47 91.18 164.40 90.12 C 162.24 90.00 160.08 89.97 157.92 89.92 C 158.30 90.82 159.06 92.61 159.44 93.51 C 158.28 92.65 157.16 91.72 156.04 90.82 C 156.83 89.56 157.05 88.10 157.19 86.64 C 156.33 87.32 155.47 87.99 154.62 88.68 C 153.47 89.10 152.35 89.59 151.28 90.18 C 151.03 91.43 150.89 92.69 150.87 93.97 C 150.39 94.02 149.41 94.11 148.93 94.16 C 149.60 92.93 149.73 91.55 149.66 90.19 C 148.80 89.25 147.59 88.75 146.55 88.06 C 146.04 88.03 145.02 87.95 144.51 87.92 C 143.35 86.91 142.15 85.95 140.88 85.10 C 133.51 80.65 128.40 73.42 123.65 66.45 C 122.97 65.46 122.29 64.46 121.62 63.46 C 120.38 61.57 119.33 59.55 118.72 57.37 C 116.59 55.37 114.85 52.86 114.75 49.84 C 111.94 50.30 109.13 50.83 106.43 51.76 C 105.94 51.85 104.96 52.04 104.47 52.14 C 103.50 52.69 102.54 53.24 101.57 53.79 C 99.40 54.20 97.27 54.88 95.32 55.94 C 95.16 55.72 94.84 55.27 94.68 55.05 C 93.02 56.00 91.33 56.96 89.42 57.26 C 86.44 59.25 83.04 60.38 79.66 61.48 C 80.21 62.53 80.78 63.57 81.31 64.63 C 81.82 65.59 82.34 66.54 82.87 67.48 C 82.94 67.99 83.07 69.00 83.13 69.50 C 84.11 70.71 84.99 72.00 85.79 73.34 C 86.82 75.82 87.92 78.32 89.65 80.41 C 90.59 81.81 91.60 83.17 92.35 84.70 C 92.76 85.12 93.58 85.98 93.99 86.41 C 93.99 87.00 94.00 88.17 94.01 88.76 C 95.21 89.25 96.43 89.73 97.65 90.19 C 100.81 88.68 102.41 85.07 105.68 83.66 C 107.76 81.72 109.65 79.56 112.06 78.02 C 116.41 75.01 119.09 69.94 123.93 67.62 C 123.94 68.10 123.97 69.07 123.99 69.56 C 122.22 70.39 120.68 71.60 119.19 72.85 C 118.56 73.56 117.92 74.27 117.27 74.97 C 114.09 78.05 110.59 80.75 107.32 83.72 C 103.01 87.25 99.09 91.24 94.46 94.40 C 93.42 95.05 92.39 95.70 91.33 96.32 C 88.95 99.04 85.57 100.50 83.01 103.02 C 79.81 105.95 76.01 108.08 72.52 110.63 C 71.46 111.35 70.45 112.12 69.45 112.92 C 68.91 112.95 67.84 113.00 67.30 113.03 C 66.90 113.52 66.11 114.50 65.71 114.99 C 66.29 115.00 67.44 115.01 68.01 115.02 L 68.01 116.08 C 67.12 116.01 65.35 115.89 64.46 115.82 C 65.88 117.31 67.30 118.80 68.70 120.30 C 69.58 121.76 70.56 123.15 71.31 124.68 C 74.42 127.27 76.35 131.04 79.57 133.41 C 81.16 135.77 83.17 137.81 85.32 139.66 C 86.50 140.25 87.50 141.09 88.46 141.98 C 93.30 139.40 96.85 135.03 101.81 132.68 C 103.11 130.72 104.29 128.48 106.68 127.70 C 107.36 127.04 108.03 126.37 108.70 125.70 C 109.37 123.80 110.79 122.44 112.60 121.62 C 113.46 120.08 114.64 118.76 115.94 117.58 C 115.98 117.01 116.05 115.86 116.08 115.29 C 114.88 114.35 113.67 113.44 112.41 112.58 C 110.39 109.09 106.79 106.95 104.54 103.64 C 102.09 100.12 99.46 96.72 96.39 93.70 C 96.94 93.73 98.03 93.77 98.58 93.79 C 102.08 97.56 104.52 102.20 108.24 105.78 C 111.34 108.84 114.46 111.88 117.46 115.04 C 118.21 114.39 119.71 113.10 120.47 112.45 C 119.32 112.27 118.20 111.94 117.01 111.84 L 116.98 111.25 C 118.71 110.98 120.35 110.39 121.99 109.81 C 122.00 109.36 122.02 108.46 122.02 108.01 C 122.41 108.00 123.19 107.99 123.58 107.98 C 124.13 106.67 124.98 105.55 125.90 104.49 C 125.93 103.96 125.99 102.90 126.02 102.37 C 127.01 101.46 127.98 100.55 128.97 99.65 C 129.00 99.12 129.06 98.06 129.09 97.54 C 130.09 96.34 130.98 95.06 131.77 93.72 C 132.12 91.10 133.62 88.88 134.74 86.54 C 134.82 84.84 135.64 83.50 137.14 82.65 C 136.73 84.29 136.23 85.91 135.78 87.55 C 134.10 90.42 132.75 93.46 131.28 96.44 C 130.63 97.77 129.97 99.10 129.32 100.43 C 128.28 102.07 127.21 103.69 126.32 105.42 C 125.45 107.06 124.17 108.41 122.84 109.68 C 123.20 109.92 123.92 110.40 124.28 110.64 C 121.33 111.01 120.47 114.21 118.57 116.00 C 119.50 116.85 120.46 117.66 121.46 118.44 C 122.09 118.64 123.36 119.04 123.99 119.23 C 124.00 119.57 124.02 120.24 124.03 120.58 C 125.32 121.14 126.46 121.99 127.52 122.91 C 128.05 122.94 129.12 122.99 129.66 123.02 C 130.07 123.51 130.90 124.49 131.32 124.98 C 131.87 125.00 132.98 125.04 133.54 125.06 C 134.51 125.69 135.48 126.32 136.46 126.95 C 137.53 126.97 138.61 126.99 139.69 127.01 C 139.95 126.40 140.48 125.19 140.74 124.59 C 141.37 123.26 141.96 121.91 142.32 120.48 C 142.75 119.51 143.19 118.54 143.63 117.57 C 144.16 116.62 144.74 115.71 145.32 114.79 L 143.66 115.03 C 144.76 113.30 145.93 111.61 147.18 109.98 L 146.00 109.94 L 146.00 109.00 L 146.92 109.00 C 146.98 108.38 147.10 107.15 147.16 106.53 C 148.45 104.89 147.86 102.71 148.09 100.80 C 147.48 101.17 146.25 101.93 145.64 102.31 C 146.30 100.25 148.35 98.92 149.80 101.09 C 149.12 104.03 148.28 106.94 147.13 109.73 C 147.35 109.90 147.80 110.23 148.03 110.39 C 147.58 111.74 145.03 113.35 146.94 114.60 C 146.01 115.86 145.10 117.13 144.18 118.39 C 143.94 119.43 143.67 120.46 143.39 121.49 C 142.86 123.50 140.87 125.43 141.45 127.56 C 142.90 127.80 144.28 127.07 145.69 126.86 C 148.02 124.64 149.98 122.11 151.90 119.55 C 151.95 118.85 152.05 117.46 152.10 116.77 C 152.63 115.68 153.03 114.53 153.35 113.36 C 153.49 112.20 156.10 110.24 154.03 109.77 C 156.17 106.66 155.01 102.61 156.91 99.40 C 156.99 97.40 156.96 95.39 156.90 93.40 C 157.62 93.67 158.34 93.95 159.06 94.22 C 157.06 96.27 158.93 99.54 157.03 101.62 C 157.26 101.81 157.72 102.19 157.94 102.38 C 156.79 104.75 156.72 107.53 155.04 109.70 C 155.30 109.88 155.81 110.22 156.07 110.40 C 155.44 111.38 154.82 112.37 154.21 113.37 C 153.66 116.53 152.54 119.55 151.78 122.65 C 150.49 123.76 148.85 124.82 148.80 126.73 C 148.22 129.48 145.91 131.29 144.54 133.61 C 143.15 135.62 142.20 138.07 140.10 139.48 C 140.06 139.75 139.97 140.30 139.93 140.58 C 139.56 140.78 138.82 141.18 138.45 141.38 C 136.35 144.61 132.78 146.42 130.70 149.64 C 126.89 151.25 124.41 155.05 120.45 156.30 C 119.15 157.96 117.24 158.20 115.35 157.50 C 114.26 160.02 111.62 161.06 109.45 162.44 C 108.31 162.72 107.17 162.99 106.03 163.23 L 106.00 162.04 C 106.62 162.01 107.86 161.95 108.48 161.92 C 110.06 160.45 111.96 159.39 113.97 158.62 C 113.99 158.14 114.03 157.17 114.05 156.69 C 113.55 157.08 112.57 157.85 112.08 158.24 L 111.94 156.78 C 110.82 157.68 109.70 158.58 108.52 159.39 C 107.03 160.02 105.54 160.67 104.05 161.28 L 103.95 162.03 L 101.81 161.77 C 101.85 162.19 101.91 163.02 101.94 163.43 C 102.73 163.04 104.31 162.24 105.09 161.85 L 104.99 163.72 C 104.41 163.94 103.27 164.37 102.69 164.58 C 100.92 164.79 99.15 165.10 97.42 165.55 C 96.41 165.98 95.42 166.45 94.45 166.97 C 94.23 166.74 93.78 166.30 93.56 166.08 C 91.41 167.66 88.61 166.96 86.34 167.90 C 86.07 167.63 85.52 167.10 85.25 166.84 L 84.87 168.06 C 84.58 167.89 83.99 167.57 83.69 167.40 C 80.61 168.00 77.00 168.87 74.19 167.01 L 73.81 167.80 C 70.79 166.46 67.40 167.42 64.31 166.38 C 64.08 166.49 63.63 166.72 63.40 166.84 C 61.43 165.97 59.45 165.12 57.48 164.26 C 54.66 163.97 52.12 162.70 49.49 161.73 C 48.13 161.05 46.76 160.40 45.38 159.77 C 43.42 158.83 41.61 157.55 40.36 155.73 C 41.86 156.62 43.38 157.51 44.90 158.39 L 45.04 158.95 C 45.65 158.99 46.88 159.05 47.50 159.09 C 48.46 159.64 49.43 160.19 50.40 160.74 C 53.17 162.48 56.31 163.16 59.53 163.50 C 60.41 164.09 61.28 164.71 62.15 165.33 L 61.93 163.82 C 64.14 165.57 67.55 165.56 69.85 164.01 C 70.01 164.08 70.34 164.24 70.50 164.31 C 71.53 164.82 72.54 165.35 73.54 165.92 C 76.49 166.03 79.44 166.07 82.39 165.88 C 84.90 164.50 87.90 165.04 90.62 164.39 C 92.16 163.86 93.64 164.60 95.11 165.00 C 94.61 164.20 94.11 163.41 93.60 162.62 C 95.97 162.78 98.19 163.81 100.55 163.88 C 100.18 163.34 99.80 162.81 99.43 162.28 C 100.46 161.72 101.50 161.18 102.56 160.66 C 103.07 160.44 104.09 160.00 104.60 159.78 C 105.57 159.21 106.53 158.65 107.49 158.07 C 108.12 158.05 109.40 158.00 110.03 157.98 L 109.88 157.41 C 108.59 156.80 107.46 155.93 106.38 155.01 L 105.65 155.90 C 104.03 154.63 102.41 153.35 100.48 152.60 C 99.48 151.96 98.48 151.32 97.44 150.74 C 94.66 149.64 93.20 146.75 90.41 145.65 C 89.52 144.98 88.63 144.31 87.73 143.65 C 84.83 146.15 81.06 147.32 78.19 149.84 C 76.95 150.02 75.72 150.25 74.50 150.55 C 72.05 151.89 69.49 153.05 66.71 153.52 C 65.27 153.79 63.84 154.14 62.45 154.63 C 61.12 155.11 59.80 155.60 58.48 156.10 C 60.17 157.19 61.87 158.27 63.57 159.35 C 64.66 161.99 67.59 162.71 69.85 164.01 C 67.54 164.31 65.01 163.46 63.72 161.44 C 62.07 159.03 58.92 158.39 57.27 156.00 C 52.00 155.75 46.59 156.68 41.43 155.24 C 40.84 155.16 39.67 155.00 39.08 154.92 L 38.98 153.78 C 38.39 154.48 38.02 155.41 37.22 155.92 C 36.09 154.66 34.87 153.46 33.40 152.60 C 32.10 151.53 30.80 150.46 29.32 149.66 C 26.80 147.39 24.43 144.96 22.08 142.52 C 22.32 140.15 19.79 140.77 18.84 139.26 C 17.08 136.23 13.90 134.02 13.24 130.40 C 13.64 130.56 14.44 130.89 14.85 131.05 C 15.17 132.49 16.06 133.71 17.14 134.69 C 17.60 134.12 18.14 133.69 18.76 133.42 C 19.70 134.12 19.95 135.53 21.13 135.94 C 23.35 136.47 25.49 135.46 27.52 134.70 C 28.53 134.37 29.54 134.06 30.56 133.78 C 31.72 133.18 32.88 132.58 34.01 131.92 L 34.36 133.38 C 35.00 132.47 35.61 131.52 36.03 130.48 C 34.75 129.23 33.48 127.97 32.25 126.67 C 31.41 123.59 29.30 121.10 27.66 118.43 C 25.32 115.69 23.57 112.43 22.69 108.93 C 20.89 107.99 18.89 107.49 16.98 106.81 C 17.63 106.46 18.28 106.10 18.93 105.76 L 19.52 106.61 C 24.48 112.03 21.18 104.48 19.21 104.26 C 17.23 103.73 16.47 106.27 15.58 107.53 C 14.93 108.56 14.28 109.60 13.67 110.66 C 13.32 111.08 12.61 111.93 12.25 112.35 C 12.00 114.82 9.30 117.10 10.63 119.57 C 10.90 121.30 11.76 122.73 13.48 123.48 C 12.72 123.68 11.96 123.87 11.20 124.05 C 11.64 125.35 11.97 126.67 12.22 128.03 C 10.04 126.00 8.10 122.69 8.59 119.61 C 6.50 119.84 5.77 117.11 7.64 116.16 C 6.81 114.52 2.90 113.33 4.88 111.36 C 2.44 108.87 4.14 105.15 2.05 102.41 C 2.28 102.20 2.75 101.79 2.99 101.58 C 1.64 99.83 2.06 97.46 1.46 95.43 C 1.00 94.41 0.51 93.40 0.00 92.40 L 0.00 86.80 C 1.14 84.83 0.86 82.47 1.75 80.41 C 2.51 76.86 1.98 72.86 4.26 69.78 L 2.84 70.11 C 3.48 68.95 3.95 67.73 4.24 66.44 C 4.84 65.36 5.45 64.28 6.09 63.22 C 3.70 62.92 6.57 60.73 6.71 59.56 C 7.01 59.04 7.61 58.02 7.91 57.50 C 7.94 56.96 7.99 55.89 8.02 55.35 C 8.51 54.92 9.49 54.07 9.99 53.65 C 10.01 53.12 10.05 52.06 10.08 51.54 C 11.14 50.34 12.04 49.01 12.74 47.57 C 13.98 45.37 15.36 43.23 17.05 41.34 L 15.59 45.72 C 16.84 44.15 18.27 42.69 19.61 41.24 C 18.63 41.12 17.65 41.04 16.67 41.00 L 17.72 40.39 C 19.85 39.75 19.41 37.14 20.98 35.89 C 23.58 33.20 26.64 31.01 29.26 28.34 C 31.63 27.12 33.38 25.08 35.29 23.29 C 37.19 22.51 39.05 21.59 40.50 20.10 C 41.00 20.04 42.00 19.93 42.50 19.88 C 44.82 17.85 47.63 16.36 50.65 15.73 C 51.59 15.20 52.51 14.67 53.44 14.12 C 54.46 14.03 55.48 13.94 56.50 13.86 C 57.11 13.56 58.35 12.96 58.97 12.67 L 59.01 13.85 C 57.19 14.49 55.34 14.99 53.42 15.22 C 52.47 15.74 51.52 16.26 50.57 16.78 C 49.20 17.23 47.83 17.71 46.46 18.18 C 45.49 18.95 44.51 19.71 43.51 20.45 C 42.49 20.72 41.46 20.98 40.43 21.24 C 37.91 23.69 35.49 26.22 33.65 29.25 C 37.12 26.86 41.77 26.51 44.46 23.06 C 45.57 24.90 46.47 22.90 47.39 22.20 C 50.05 22.11 52.46 20.97 54.95 20.21 C 57.55 20.07 60.12 19.76 62.49 18.63 C 64.91 18.06 67.39 17.31 69.89 17.72 C 71.38 15.22 73.27 13.01 75.37 11.00 C 73.91 11.00 72.46 10.99 71.00 10.99 L 71.00 10.00 C 72.72 10.00 74.44 9.99 76.16 9.99 C 75.28 7.03 75.30 3.94 76.15 0.97 M 71.79 18.17 C 72.90 17.16 74.00 16.79 74.97 18.17 L 75.06 16.83 L 76.00 17.29 C 76.00 15.76 75.99 14.22 75.98 12.69 C 74.39 14.32 71.83 15.60 71.79 18.17 M 111.83 24.07 C 113.76 27.07 118.07 27.01 120.31 29.75 C 121.08 30.81 122.33 31.18 123.60 31.20 C 126.76 33.58 129.97 35.92 133.21 38.17 C 132.72 38.68 132.22 39.18 131.73 39.68 C 132.59 39.74 134.33 39.87 135.20 39.93 C 133.03 35.26 128.11 32.57 125.99 27.93 C 130.48 30.92 133.41 35.60 137.11 39.32 C 136.93 38.64 136.57 37.27 136.38 36.58 C 135.94 35.55 135.13 34.81 134.26 34.16 C 132.10 30.69 128.51 28.67 125.60 25.98 L 124.86 26.21 L 125.16 25.01 L 123.64 24.84 C 124.26 25.62 125.49 27.17 126.10 27.94 C 122.78 27.22 120.90 24.26 118.65 22.03 C 118.08 22.01 116.93 21.98 116.36 21.96 C 115.45 19.96 112.32 22.75 111.83 24.07 M 123.64 24.84 C 123.12 24.08 123.12 24.08 123.64 24.84 M 111.34 25.78 C 108.96 27.79 110.25 30.81 111.23 33.16 C 111.58 32.85 112.28 32.24 112.63 31.93 C 115.25 34.37 119.53 33.42 122.36 35.71 C 123.77 36.41 125.20 37.27 126.86 37.11 L 127.15 37.79 C 128.47 38.10 129.61 38.84 130.84 39.40 C 129.73 35.85 125.28 34.59 122.60 32.23 C 121.50 31.84 120.26 31.62 119.48 30.66 C 117.30 28.25 113.97 27.56 111.34 25.78 M 29.31 29.25 C 26.48 32.03 23.77 34.94 20.84 37.62 C 21.09 38.20 21.36 38.76 21.64 39.33 C 22.27 37.44 24.61 37.31 25.32 35.54 C 27.54 32.19 34.06 31.85 33.11 26.70 C 31.90 27.63 30.84 28.86 29.31 29.25 M 138.69 38.83 C 139.08 40.14 139.67 41.38 140.27 42.62 C 140.51 43.21 140.98 44.40 141.22 44.99 L 142.02 45.01 C 142.00 43.81 141.98 42.61 141.95 41.41 C 141.66 40.82 141.07 39.65 140.78 39.06 C 140.26 39.00 139.21 38.89 138.69 38.83 C 138.16 38.10 138.16 38.10 138.69 38.83 M 137.18 40.20 C 137.88 40.87 137.88 40.87 137.18 40.20 M 141.87 46.32 C 143.04 47.65 144.23 49.30 146.22 49.17 C 145.79 47.70 145.21 46.29 144.71 44.84 C 143.62 45.06 142.68 45.56 141.87 46.32 M 146.18 50.20 C 146.87 50.88 146.87 50.88 146.18 50.20 M 137.86 52.33 L 139.39 54.00 C 138.84 54.00 137.76 54.00 137.21 54.00 C 137.01 56.09 135.23 57.82 133.22 58.22 C 132.94 60.58 130.05 61.41 129.77 63.76 C 127.57 64.17 124.33 67.20 126.78 69.20 C 130.45 72.57 132.49 77.64 136.86 80.17 C 136.96 78.20 138.25 76.62 139.17 74.97 L 137.45 74.46 L 138.84 73.76 C 139.90 71.82 139.34 68.38 142.47 68.71 C 140.62 70.11 140.96 72.50 140.32 74.45 C 139.66 76.18 138.86 77.87 138.52 79.70 C 138.36 80.06 138.05 80.77 137.89 81.13 C 139.78 83.71 143.25 84.59 145.45 86.91 C 145.99 86.96 147.05 87.05 147.58 87.09 C 148.23 87.37 149.51 87.92 150.15 88.19 C 149.79 87.28 148.43 86.36 149.75 85.46 C 147.81 84.49 151.72 82.85 148.87 82.70 C 149.19 82.35 149.83 81.64 150.15 81.29 C 147.33 81.01 150.36 79.43 150.97 78.69 C 151.03 82.25 151.08 85.82 150.85 89.38 C 151.73 88.74 152.52 87.82 153.72 87.84 C 155.01 86.63 155.97 85.15 156.93 83.68 C 156.39 82.06 154.64 80.13 155.71 78.46 C 155.22 76.94 154.75 75.40 153.91 74.03 L 155.33 73.89 C 154.96 73.58 154.24 72.96 153.88 72.65 C 154.38 71.76 154.80 70.84 155.13 69.87 C 154.31 70.34 153.51 70.84 152.72 71.36 C 152.70 69.37 153.09 67.42 154.08 65.68 C 153.47 65.71 152.27 65.76 151.67 65.79 C 151.00 64.65 150.31 63.54 149.68 62.38 C 148.52 60.57 147.61 58.62 147.18 56.50 L 149.55 56.61 C 148.63 55.94 147.55 54.74 146.42 55.76 C 145.44 54.35 143.98 53.84 142.78 55.30 C 142.86 54.47 143.01 52.82 143.08 51.99 L 142.00 52.00 C 141.90 57.27 142.27 62.57 141.68 67.83 C 141.36 67.59 140.70 67.12 140.38 66.88 C 141.67 61.67 140.73 56.13 140.98 50.77 C 139.81 51.02 138.77 51.54 137.86 52.33 M 147.06 52.06 C 146.94 53.42 147.56 54.05 148.93 53.95 C 149.05 52.58 148.43 51.95 147.06 52.06 M 148.89 58.69 C 150.88 59.62 151.02 62.16 152.85 63.26 L 153.15 62.00 L 152.03 62.00 C 152.02 61.57 151.99 60.70 151.97 60.27 C 151.02 59.94 149.15 56.50 148.89 58.69 M 6.10 65.00 C 6.30 66.37 5.97 67.50 5.09 68.39 C 5.05 68.95 4.96 70.09 4.92 70.66 C 4.14 71.88 3.50 73.20 2.99 74.62 C 3.30 74.85 3.92 75.31 4.23 75.54 C 1.04 77.25 4.86 82.45 1.96 84.31 C 3.47 85.14 2.57 86.18 1.81 87.18 C 3.36 87.32 4.35 86.32 5.21 85.19 L 3.82 84.88 C 4.75 83.92 5.11 82.65 5.28 81.37 C 5.90 80.48 6.18 79.48 6.12 78.34 C 6.99 77.06 10.33 75.78 7.96 74.20 L 9.06 73.81 C 8.18 72.88 7.98 71.65 7.81 70.44 C 6.28 69.05 7.26 66.78 6.99 65.00 L 6.10 65.00 M 154.19 68.19 C 154.86 68.89 154.86 68.89 154.19 68.19 M 61.53 117.62 C 59.93 118.36 58.85 120.01 57.01 120.24 C 57.00 120.65 57.00 121.47 57.00 121.88 C 54.60 121.38 53.30 123.43 51.40 124.32 C 49.98 125.05 48.55 125.80 47.01 126.24 C 47.01 126.67 47.00 127.52 47.00 127.95 C 45.67 128.22 43.90 127.45 42.89 128.63 C 41.98 130.01 40.43 130.07 38.93 130.13 L 39.09 131.81 L 37.73 131.91 C 38.34 132.81 39.19 133.62 39.21 134.80 C 43.03 135.55 42.88 141.18 46.58 142.41 C 47.40 143.89 48.74 145.06 49.25 146.71 C 52.04 148.37 53.38 152.01 56.58 153.38 C 58.10 155.73 60.87 151.49 61.32 154.19 C 61.56 153.93 62.05 153.41 62.29 153.15 C 63.63 153.02 64.91 152.43 66.27 152.57 C 69.51 152.69 71.79 149.52 75.05 149.90 L 74.99 149.24 C 76.98 148.72 78.72 147.57 80.59 146.75 C 82.99 145.53 85.21 143.99 87.32 142.33 C 84.75 140.90 81.62 139.37 80.79 136.29 C 79.75 135.25 78.76 134.02 77.23 133.74 C 75.69 129.59 70.41 127.79 69.75 123.03 C 69.37 123.02 68.61 122.99 68.23 122.98 C 68.14 120.37 64.77 119.57 64.77 116.93 C 63.62 116.90 62.55 117.13 61.53 117.62 M 117.46 116.71 C 115.63 121.23 110.61 123.42 108.76 127.76 C 104.30 129.74 101.92 134.91 97.20 136.76 C 95.61 139.41 92.48 140.99 89.79 142.28 C 90.01 143.76 91.20 144.71 92.16 145.76 C 93.72 146.39 95.97 146.78 96.27 148.77 C 97.51 149.00 98.45 149.82 99.27 150.74 C 99.80 150.97 100.87 151.42 101.41 151.64 C 102.77 152.34 104.10 153.09 105.45 153.82 C 107.17 153.73 108.39 154.73 109.51 155.91 C 110.70 154.17 112.37 156.77 113.98 156.10 C 113.99 155.64 114.01 154.73 114.02 154.28 C 118.43 152.22 122.29 149.13 125.76 145.76 C 127.03 144.32 127.50 141.86 129.80 141.80 C 130.86 138.65 133.33 136.04 135.76 133.79 C 135.97 133.24 136.41 132.15 136.63 131.60 C 137.18 130.52 137.81 129.48 138.39 128.42 C 137.06 128.27 135.79 127.90 134.60 127.32 C 134.10 127.07 133.11 126.55 132.61 126.29 C 127.04 123.96 122.06 120.58 117.46 116.71 M 140.28 127.77 C 140.60 129.98 137.28 130.35 137.89 132.55 C 133.66 138.36 128.88 143.75 124.08 149.11 C 121.68 151.95 117.36 152.51 115.68 156.05 C 117.04 156.23 118.28 155.99 119.41 155.32 C 122.95 154.18 125.44 150.89 128.87 149.83 C 129.78 148.74 130.75 147.68 131.41 146.40 C 134.15 144.98 135.87 142.26 138.19 140.29 C 142.25 136.85 143.48 131.30 147.49 127.82 C 145.81 128.25 143.62 127.43 142.37 129.01 C 141.85 128.70 140.80 128.08 140.28 127.77 M 36.67 132.06 C 34.50 134.30 31.06 134.06 28.59 135.84 C 26.20 135.75 24.14 137.08 21.78 137.18 C 22.26 139.97 25.37 141.08 26.65 143.44 C 27.57 145.10 28.71 146.95 30.77 147.23 C 31.01 148.80 32.29 149.80 33.30 150.91 C 35.13 150.66 36.41 151.70 37.56 152.97 C 38.83 150.01 40.15 156.03 41.68 152.99 C 45.15 156.71 50.75 154.38 55.20 154.98 C 55.06 152.56 52.11 151.94 50.95 150.08 C 48.33 146.08 44.35 143.19 41.89 139.09 C 40.42 136.54 37.88 134.78 36.67 132.06 M 20.17 138.19 C 20.87 138.87 20.87 138.87 20.17 138.19 M 96.18 164.19 C 96.87 164.87 96.87 164.87 96.18 164.19 Z" />
<path fill="#000000" opacity="1.00" d=" M 72.19 4.17 C 72.87 4.86 72.87 4.86 72.19 4.17 Z" />
<path fill="#000000" opacity="1.00" d=" M 66.86 9.96 L 68.34 10.08 C 66.54 13.14 62.55 12.32 59.96 14.12 C 59.97 13.65 60.00 12.70 60.01 12.22 C 60.71 11.82 62.12 11.02 62.82 10.62 L 62.98 12.25 C 64.05 11.01 65.51 10.79 67.09 10.96 L 66.86 9.96 Z" />
<path fill="#000000" opacity="1.00" d=" M 69.13 10.21 C 72.27 10.50 67.61 13.41 69.13 10.21 Z" />
<path fill="#000000" opacity="1.00" d=" M 89.96 9.85 C 90.83 10.38 91.71 11.53 92.60 10.17 C 93.68 10.76 94.74 11.40 95.78 12.07 C 96.23 9.81 98.91 12.78 100.42 12.58 C 100.79 12.87 101.55 13.46 101.92 13.75 L 101.44 14.23 C 99.87 16.13 98.20 11.90 96.53 13.72 C 95.21 13.21 93.67 13.06 92.58 12.08 C 91.93 12.05 90.64 12.00 90.00 11.97 C 89.99 11.44 89.97 10.38 89.96 9.85 Z" />
<path fill="#000000" opacity="1.00" d=" M 69.99 25.45 L 70.64 25.32 C 70.49 25.53 70.19 25.96 70.04 26.17 L 69.99 25.45 Z" />
<path fill="#000000" opacity="1.00" d=" M 69.40 26.16 L 70.04 26.17 L 69.99 27.05 L 69.35 26.90 L 69.40 26.16 Z" />
<path fill="#000000" opacity="1.00" d=" M 69.99 27.05 L 70.64 27.13 L 70.64 27.89 L 70.00 28.00 L 69.99 27.05 Z" />
<path fill="#000000" opacity="1.00" d=" M 69.36 28.11 L 70.00 28.00 L 70.01 28.95 L 69.36 28.87 L 69.36 28.11 Z" />
<path fill="#000000" opacity="1.00" d=" M 70.01 28.95 L 70.65 29.10 L 70.61 29.83 L 69.96 29.83 L 70.01 28.95 Z" />
<path fill="#000000" opacity="1.00" d=" M 69.36 30.68 C 69.51 30.47 69.81 30.04 69.96 29.83 L 70.01 30.55 L 69.36 30.68 Z" />
<path fill="#000000" opacity="1.00" d=" M 87.65 29.97 C 88.06 30.48 88.88 31.50 89.29 32.01 C 85.70 32.50 81.51 30.88 78.32 32.99 C 78.17 32.78 77.89 32.36 77.74 32.15 C 75.29 32.84 72.79 33.39 70.49 34.50 L 72.28 35.24 C 71.46 36.00 70.64 36.76 69.82 37.52 C 69.87 36.62 69.99 34.83 70.04 33.93 C 68.89 34.00 67.75 34.07 66.60 34.15 C 65.58 34.57 64.55 34.97 63.51 35.33 C 62.19 35.79 60.86 36.22 59.56 36.73 C 57.92 37.39 56.24 37.94 54.50 38.27 C 52.11 39.30 49.76 40.40 47.52 41.71 C 46.18 42.24 44.86 42.79 43.52 43.31 C 42.22 44.14 40.82 44.82 39.37 45.35 C 38.11 46.44 36.83 47.51 35.39 48.37 C 33.89 49.66 32.45 51.27 30.29 51.27 C 27.84 53.59 25.59 56.11 22.97 58.25 C 20.80 60.41 18.48 62.45 16.66 64.93 C 15.54 66.35 14.75 68.34 12.56 68.21 C 13.85 66.60 15.34 65.13 16.33 63.30 C 19.57 59.89 22.64 56.18 26.62 53.60 C 27.45 51.21 29.93 50.47 32.06 49.66 C 31.96 47.79 32.30 45.72 30.98 44.18 C 32.17 43.78 32.10 43.03 30.79 41.93 C 31.34 41.95 32.44 41.99 32.99 42.01 C 32.99 44.15 33.00 46.29 33.08 48.42 C 34.76 47.74 36.09 46.49 37.39 45.27 C 39.13 44.45 40.85 43.57 42.57 42.72 C 43.91 42.06 45.23 41.38 46.56 40.72 C 49.11 39.41 51.66 38.06 54.46 37.35 C 55.90 36.98 57.25 36.37 58.58 35.71 C 59.54 35.34 60.50 34.98 61.47 34.64 C 63.14 34.18 64.83 33.82 66.50 33.40 C 68.33 33.01 69.77 31.84 71.17 30.66 L 70.83 33.51 C 71.40 32.97 71.98 32.44 72.56 31.91 C 74.02 31.95 75.49 31.98 76.95 32.00 L 77.02 30.75 C 77.40 31.05 78.15 31.65 78.53 31.95 C 81.04 29.62 85.14 32.38 87.65 29.97 Z" />
<path fill="#000000" opacity="1.00" d=" M 89.19 30.20 C 89.87 30.88 89.87 30.88 89.19 30.20 Z" />
<path fill="#000000" opacity="1.00" d=" M 89.74 32.00 C 90.26 31.40 91.31 30.21 91.83 29.61 L 92.06 31.16 C 92.88 30.52 93.70 29.54 94.56 30.74 C 95.65 29.39 96.69 31.46 97.95 31.00 C 100.30 31.05 102.65 30.98 105.00 31.00 C 105.01 31.53 105.02 32.60 105.03 33.14 C 104.52 32.86 103.49 32.31 102.97 32.04 C 98.56 31.91 94.15 32.06 89.74 32.00 Z" />
<path fill="#000000" opacity="1.00" d=" M 110.20 35.01 C 111.53 36.03 111.11 38.31 112.33 39.58 C 113.96 40.52 110.80 41.70 112.78 42.37 C 112.84 43.93 113.95 45.27 113.85 46.83 C 112.34 46.51 112.19 44.58 111.68 43.39 C 110.72 42.28 111.09 40.73 110.89 39.39 C 109.44 38.44 109.94 36.42 110.20 35.01 Z" />
<path fill="#000000" opacity="1.00" d=" M 31.33 37.31 L 31.98 37.33 L 32.00 38.00 L 31.33 37.97 L 31.33 37.31 Z" />
<path fill="#000000" opacity="1.00" d=" M 32.00 38.00 L 32.67 38.03 L 32.67 38.68 L 32.02 38.67 L 32.00 38.00 Z" />
<path fill="#000000" opacity="1.00" d=" M 31.07 39.64 C 33.07 38.20 32.96 42.65 31.11 40.50 L 31.07 39.64 Z" />
<path fill="#000000" opacity="1.00" d=" M 32.75 51.72 C 33.08 51.70 33.74 51.66 34.07 51.64 C 34.04 53.08 34.45 54.41 35.28 55.61 C 36.55 56.94 35.41 59.15 36.79 60.41 C 36.96 61.72 37.28 62.98 38.12 64.04 C 37.62 64.03 36.62 64.01 36.11 64.00 C 36.19 62.75 35.92 61.61 35.31 60.58 C 34.61 59.22 33.89 57.88 33.23 56.51 C 34.78 55.03 31.85 53.41 32.75 51.72 Z" />
<path fill="#000000" opacity="1.00" d=" M 143.79 55.12 C 146.44 56.95 146.67 60.44 148.04 63.10 C 147.46 62.92 146.28 62.56 145.70 62.38 C 146.29 59.85 144.23 57.55 143.79 55.12 Z" />
<path fill="#000000" opacity="1.00" d=" M 146.94 63.54 C 147.67 64.57 148.33 65.65 149.05 66.68 C 148.93 68.54 148.63 70.68 150.17 72.09 L 149.00 72.03 L 149.00 72.99 L 150.00 73.03 C 150.00 74.68 150.00 76.34 150.00 78.00 L 149.03 78.01 C 148.82 76.28 149.50 74.23 148.37 72.74 C 148.12 71.05 148.27 69.24 147.37 67.73 C 147.18 66.34 147.04 64.94 146.94 63.54 Z" />
<path fill="#000000" opacity="1.00" d=" M 40.44 82.51 C 41.19 82.32 42.68 81.95 43.43 81.76 C 42.99 82.27 42.12 83.29 41.69 83.80 C 35.87 86.01 32.13 91.57 27.07 95.05 C 24.21 96.64 23.18 100.39 19.80 101.20 C 20.94 99.55 22.27 98.04 23.45 96.41 C 27.60 93.25 31.34 89.53 35.67 86.64 C 37.20 85.20 38.68 83.67 40.44 82.51 Z" />
<path fill="#000000" opacity="1.00" d=" M 152.67 97.97 C 150.31 97.41 153.38 93.61 154.96 94.09 C 154.84 95.54 153.27 96.63 152.67 97.97 Z" />
<path fill="#000000" opacity="1.00" d=" M 168.14 95.28 C 168.28 94.98 168.56 94.37 168.70 94.07 C 170.61 94.26 169.95 97.47 168.23 96.88 C 168.21 96.48 168.16 95.68 168.14 95.28 Z" />
<path fill="#000000" opacity="1.00" d=" M 149.00 98.94 C 148.52 97.23 148.76 95.96 149.73 95.13 C 150.32 96.02 150.53 99.48 149.00 98.94 Z" />
<path fill="#000000" opacity="1.00" d=" M 6.61 100.12 L 7.93 99.92 C 8.69 101.72 13.05 102.15 12.07 105.31 C 10.36 103.46 8.38 101.90 6.61 100.12 Z" />
<path fill="#000000" opacity="1.00" d=" M 144.18 102.19 C 144.86 102.87 144.86 102.87 144.18 102.19 Z" />
<path fill="#000000" opacity="1.00" d=" M 137.06 105.39 C 137.85 104.63 140.54 102.91 140.93 104.63 C 140.10 105.35 137.52 107.09 137.06 105.39 Z" />
<path fill="#000000" opacity="1.00" d=" M 135.20 106.19 C 135.88 106.88 135.88 106.88 135.20 106.19 Z" />
<path fill="#000000" opacity="1.00" d=" M 131.20 107.19 C 131.88 107.88 131.88 107.88 131.20 107.19 Z" />
<path fill="#000000" opacity="1.00" d=" M 126.06 109.82 C 125.87 108.12 128.67 107.09 129.89 108.20 C 129.65 109.58 127.19 109.49 126.06 109.82 Z" />
<path fill="#000000" opacity="1.00" d=" M 34.11 111.20 C 37.25 111.48 32.62 114.42 34.11 111.20 Z" />
<path fill="#000000" opacity="1.00" d=" M 36.05 111.16 C 37.17 111.06 38.14 111.45 38.94 112.34 C 38.88 114.26 35.47 112.58 36.05 111.16 Z" />
<path fill="#000000" opacity="1.00" d=" M 108.04 113.86 C 107.43 112.41 110.99 110.74 110.94 112.69 C 110.11 113.54 109.15 113.93 108.04 113.86 Z" />
<path fill="#000000" opacity="1.00" d=" M 44.17 113.80 C 44.54 112.63 45.43 112.43 46.82 113.20 C 46.44 114.37 45.56 114.57 44.17 113.80 Z" />
<path fill="#000000" opacity="1.00" d=" M 48.18 113.19 C 48.88 113.86 48.88 113.86 48.18 113.19 Z" />
<path fill="#000000" opacity="1.00" d=" M 99.41 113.36 C 101.69 113.45 100.07 116.07 98.54 114.91 L 98.21 114.33 C 98.51 114.09 99.11 113.60 99.41 113.36 Z" />
<path fill="#000000" opacity="1.00" d=" M 101.28 113.27 L 101.92 113.35 L 101.88 114.01 L 101.22 113.92 L 101.28 113.27 Z" />
<path fill="#000000" opacity="1.00" d=" M 101.88 114.01 C 102.37 112.36 105.31 112.99 103.47 114.54 C 103.10 114.59 102.35 114.68 101.97 114.73 L 101.88 114.01 Z" />
<path fill="#000000" opacity="1.00" d=" M 51.70 114.00 C 53.91 113.71 56.00 114.30 57.99 115.22 L 58.01 115.98 C 56.66 115.48 55.00 115.93 54.73 117.44 C 53.89 119.61 52.51 122.06 49.93 122.30 C 49.36 119.66 51.50 116.45 54.39 117.02 C 53.46 116.03 52.56 115.03 51.70 114.00 Z" />
<path fill="#000000" opacity="1.00" d=" M 94.27 113.95 C 96.68 113.93 92.96 117.68 92.95 115.28 C 93.28 114.95 93.94 114.28 94.27 113.95 Z" />
<path fill="#000000" opacity="1.00" d=" M 71.18 115.18 C 71.86 115.87 71.86 115.87 71.18 115.18 Z" />
<path fill="#000000" opacity="1.00" d=" M 73.18 115.20 C 73.88 115.87 73.88 115.87 73.18 115.20 Z" />
<path fill="#000000" opacity="1.00" d=" M 75.05 115.07 C 76.42 114.94 77.05 115.56 76.94 116.94 C 75.58 117.06 74.95 116.44 75.05 115.07 Z" />
<path fill="#000000" opacity="1.00" d=" M 81.20 115.18 C 81.87 115.88 81.87 115.88 81.20 115.18 Z" />
<path fill="#000000" opacity="1.00" d=" M 83.20 115.19 C 83.88 115.87 83.88 115.87 83.20 115.19 Z" />
<path fill="#000000" opacity="1.00" d=" M 85.18 115.19 C 85.86 115.88 85.86 115.88 85.18 115.19 Z" />
<path fill="#000000" opacity="1.00" d=" M 89.17 115.79 C 88.77 114.38 92.23 114.38 91.83 115.79 C 91.17 115.79 89.83 115.79 89.17 115.79 Z" />
<path fill="#000000" opacity="1.00" d=" M 45.11 118.07 C 46.34 118.02 47.07 118.67 47.29 120.04 C 47.51 120.99 45.16 123.08 45.08 121.40 C 46.13 120.34 45.12 119.19 45.11 118.07 Z" />
<path fill="#000000" opacity="1.00" d=" M 12.66 126.22 C 13.05 125.67 13.44 125.12 13.84 124.58 C 14.72 127.16 15.97 129.64 18.05 131.47 C 17.10 132.35 15.81 131.38 14.85 131.05 C 14.92 129.17 13.45 127.78 12.66 126.22 Z" />
<path fill="#000000" opacity="1.00" d=" M 38.96 156.54 C 39.84 155.64 40.58 155.79 41.18 157.00 C 40.55 158.25 39.81 158.10 38.96 156.54 Z" />
</g>
</svg>
