<?xml version="1.0" encoding="UTF-8" ?>
<!DOCTYPE svg PUBLIC "-//W3C//DTD SVG 1.1//EN" "http://www.w3.org/Graphics/SVG/1.1/DTD/svg11.dtd">
<svg width="400pt" height="216pt" viewBox="0 0 400 216" version="1.1" xmlns="http://www.w3.org/2000/svg">
<g id="#ffffffff">
<path fill="#ffffff" opacity="1.00" d=" M 0.00 0.00 L 400.00 0.00 L 400.00 216.00 L 0.00 216.00 L 0.00 0.00 M 38.43 24.69 C 38.48 31.02 38.46 37.35 38.44 43.68 C 40.57 43.69 42.69 43.69 44.82 43.70 C 44.83 41.59 44.81 39.48 44.82 37.38 C 46.76 37.37 48.69 37.36 50.62 37.36 C 50.61 39.47 50.60 41.59 50.62 43.70 C 52.81 43.69 54.99 43.68 57.17 43.65 C 57.18 37.33 57.18 31.01 57.17 24.69 C 54.98 24.67 52.79 24.66 50.60 24.66 C 50.60 26.72 50.61 28.78 50.62 30.83 C 48.69 30.82 46.75 30.81 44.81 30.81 C 44.81 28.76 44.83 26.71 44.85 24.66 C 42.71 24.65 40.57 24.66 38.43 24.69 M 59.69 24.68 C 59.68 26.71 59.68 28.75 59.66 30.79 C 61.57 30.90 63.47 31.04 65.38 31.17 C 65.35 35.34 65.37 39.51 65.34 43.69 C 67.47 43.69 69.60 43.69 71.72 43.70 C 71.71 39.52 71.72 35.35 71.70 31.17 C 73.60 31.03 75.51 30.90 77.42 30.80 C 77.40 28.75 77.40 26.71 77.39 24.67 C 71.49 24.66 65.59 24.65 59.69 24.68 M 80.14 24.66 C 80.20 31.00 80.18 37.34 80.15 43.68 C 82.22 43.69 84.29 43.69 86.35 43.70 C 86.39 40.66 86.33 37.61 86.39 34.56 C 87.90 36.71 89.30 38.94 90.79 41.10 C 92.18 38.93 93.56 36.74 95.13 34.69 C 95.26 37.69 95.21 40.69 95.20 43.69 C 97.31 43.69 99.42 43.69 101.53 43.69 C 101.44 37.54 101.59 31.40 101.49 25.26 C 99.65 23.96 96.99 24.95 94.83 24.65 C 93.49 26.81 92.17 28.99 90.84 31.17 C 89.45 29.04 88.12 26.87 86.82 24.69 C 84.59 24.66 82.37 24.66 80.14 24.66 M 104.57 24.66 C 104.59 31.01 104.55 37.36 104.60 43.71 C 109.76 43.64 114.93 43.72 120.10 43.65 C 120.11 41.56 120.10 39.48 120.12 37.39 C 117.12 37.37 114.12 37.36 111.13 37.37 C 111.14 33.14 111.14 28.91 111.14 24.68 C 108.95 24.66 106.76 24.66 104.57 24.66 M 29.23 52.36 C 32.20 86.41 35.18 120.46 38.36 154.49 C 51.94 158.06 65.37 162.30 79.00 165.56 C 89.51 163.28 99.77 159.83 110.20 157.16 C 113.45 156.10 117.04 155.75 120.00 153.95 C 123.01 120.09 126.19 86.24 128.96 52.36 C 95.71 52.38 62.47 52.38 29.23 52.36 M 235.09 74.32 C 220.89 77.63 206.86 83.98 196.95 94.96 C 189.61 102.84 185.50 114.23 188.13 124.91 C 190.30 134.19 196.72 141.85 204.08 147.61 C 204.94 148.81 205.74 150.12 206.95 151.02 C 222.22 161.28 240.83 165.31 259.00 165.66 C 274.24 165.30 289.80 162.72 303.34 155.38 C 309.98 151.80 316.99 147.94 321.15 141.39 C 320.51 141.43 319.23 141.51 318.59 141.56 C 318.35 141.86 317.87 142.48 317.63 142.78 C 303.92 151.70 287.07 154.17 271.00 153.78 C 258.14 154.15 245.21 151.62 233.42 146.47 C 224.70 142.55 216.36 136.70 211.61 128.21 C 206.95 119.53 208.92 108.10 215.94 101.23 C 219.01 113.26 221.54 125.41 224.60 137.44 C 226.55 137.44 228.51 137.45 230.46 137.48 C 233.51 126.69 235.97 115.75 238.81 104.92 C 241.35 115.79 244.20 126.59 246.83 137.45 C 248.92 137.43 251.01 137.42 253.11 137.40 C 254.14 131.81 255.75 126.36 256.91 120.81 C 257.01 122.21 257.24 123.60 257.62 124.96 C 258.48 123.02 259.35 121.06 259.94 119.01 C 258.77 124.02 259.07 129.57 261.85 134.03 C 264.37 140.79 274.14 141.50 279.14 137.14 C 282.62 134.44 282.78 129.75 283.94 125.86 C 283.94 130.15 284.20 134.46 285.03 138.68 L 285.12 137.53 C 287.91 137.38 290.63 136.44 293.44 136.86 C 293.55 139.06 298.86 139.00 299.53 137.30 C 301.07 137.52 302.29 136.19 303.39 135.30 C 306.91 131.47 307.90 126.00 307.57 120.96 C 307.52 116.01 304.96 110.47 299.90 108.94 C 296.55 107.59 293.35 109.78 290.37 111.03 C 290.35 107.11 290.34 103.20 290.40 99.28 C 288.66 99.34 286.93 99.38 285.21 99.39 L 285.23 100.07 C 283.05 107.52 285.14 115.45 283.84 123.07 C 283.29 120.24 282.50 117.42 280.99 114.94 C 279.30 111.50 276.05 108.41 271.98 108.54 C 267.50 108.25 263.47 111.14 261.10 114.75 C 260.92 107.95 263.39 101.52 264.16 94.83 C 261.30 94.72 258.03 94.03 255.79 96.29 C 254.75 106.73 251.48 116.82 250.04 127.20 C 247.12 116.68 244.57 106.06 242.06 95.43 C 239.95 95.47 237.84 95.50 235.74 95.52 C 233.09 106.06 230.38 116.58 227.93 127.17 C 225.93 118.58 224.39 109.90 222.38 101.32 C 222.85 98.84 223.34 96.01 225.88 94.83 C 235.90 88.68 247.48 85.46 259.05 83.90 C 274.35 82.27 290.10 83.25 304.77 88.10 C 310.36 89.89 315.28 93.22 320.78 95.22 C 320.61 94.69 320.26 93.64 320.09 93.11 C 319.83 93.01 319.29 92.80 319.03 92.69 C 309.75 84.40 298.46 78.50 286.46 75.27 C 269.75 70.67 251.96 70.39 235.09 74.32 M 321.17 99.07 C 315.66 101.62 312.45 107.45 311.51 113.23 C 311.04 118.36 310.87 123.83 313.33 128.53 C 316.03 134.43 322.49 138.50 329.04 137.69 C 332.57 137.82 335.13 135.13 337.53 132.93 C 337.56 133.83 337.62 135.64 337.64 136.54 C 339.55 136.88 341.44 137.30 343.36 137.59 C 343.44 130.29 343.46 122.99 343.35 115.69 C 338.43 116.33 333.48 116.28 328.54 116.38 C 328.53 118.42 328.51 120.46 328.50 122.50 C 331.01 122.48 333.53 122.48 336.05 122.47 C 335.82 123.79 335.66 125.12 335.33 126.42 C 333.70 131.93 325.25 132.04 322.06 127.95 C 317.90 122.55 317.87 114.71 320.87 108.75 C 322.69 104.98 327.89 103.27 331.51 105.47 C 333.70 106.73 334.56 109.25 335.77 111.32 C 338.10 111.29 340.44 111.29 342.77 111.28 C 342.41 108.15 341.55 104.97 339.48 102.52 C 335.21 97.17 327.11 96.01 321.17 99.07 M 347.30 98.14 C 347.16 111.13 347.37 124.12 347.19 137.11 C 347.49 137.49 348.09 138.25 348.40 138.62 C 354.95 138.65 361.51 138.79 368.07 138.70 C 370.64 138.74 373.03 137.70 375.33 136.66 C 375.75 136.64 376.58 136.58 377.00 136.56 C 376.99 136.06 376.97 135.06 376.96 134.57 C 375.66 134.28 374.37 134.00 373.09 133.72 C 372.78 132.33 372.49 130.94 372.21 129.56 C 366.62 129.72 361.03 129.62 355.44 129.64 C 355.50 119.17 355.49 108.69 355.45 98.22 L 354.43 98.34 C 352.05 98.27 349.68 98.19 347.30 98.14 M 74.34 168.25 C 66.77 170.68 58.88 172.17 51.57 175.38 C 47.43 175.37 43.52 177.03 39.46 177.66 C 37.55 180.00 37.89 183.25 37.58 186.07 C 37.79 187.63 37.85 189.22 38.17 190.78 C 40.14 192.16 42.64 192.25 44.95 192.39 C 51.65 192.64 58.33 191.87 64.99 191.29 C 71.30 190.77 77.55 188.67 83.92 189.77 C 89.96 193.63 97.55 192.96 103.87 196.18 C 109.15 198.92 115.20 198.17 120.91 197.82 C 121.30 194.67 121.50 191.50 121.61 188.33 C 121.31 187.06 121.01 185.80 120.72 184.54 C 120.54 183.64 120.19 181.84 120.01 180.94 C 119.91 180.31 119.71 179.04 119.61 178.41 C 115.30 177.25 111.07 175.14 106.51 175.41 C 100.01 172.29 92.84 171.09 86.02 168.87 C 82.26 167.64 78.18 166.87 74.34 168.25 M 227.42 177.20 C 223.36 176.89 219.86 179.41 216.63 181.51 C 214.89 181.60 213.22 182.12 211.54 182.53 C 208.15 184.45 204.65 186.69 203.61 190.72 C 211.92 191.03 220.33 191.53 228.61 190.52 C 234.82 189.03 241.10 187.46 246.93 184.79 C 251.40 184.19 255.84 183.32 260.17 182.08 C 268.32 181.91 276.49 181.52 284.62 182.39 C 290.72 182.71 296.83 184.68 302.94 183.36 C 299.18 180.22 294.70 177.07 289.58 177.20 C 286.76 175.89 283.84 174.77 280.79 174.14 C 270.43 171.98 259.75 170.88 249.20 172.18 C 241.82 173.13 234.23 173.96 227.42 177.20 Z" />
<path fill="#ffffff" opacity="1.00" d=" M 47.74 73.59 C 58.15 72.98 68.60 73.49 79.04 73.31 C 89.48 73.27 99.93 73.34 110.37 73.27 C 110.02 77.40 109.63 81.53 109.38 85.67 C 99.23 85.74 89.08 85.72 78.94 85.68 C 73.12 85.64 67.31 85.66 61.49 85.69 C 61.61 87.54 61.73 89.40 61.89 91.25 C 61.63 89.25 61.33 87.26 61.04 85.27 C 67.01 85.13 72.99 85.02 78.97 84.90 C 79.00 81.30 79.00 77.71 78.97 74.11 C 68.57 73.50 58.13 74.39 47.74 73.59 Z" />
<path fill="#ffffff" opacity="1.00" d=" M 62.68 98.62 C 68.37 98.49 74.06 98.56 79.75 98.51 C 89.17 98.47 98.59 98.54 108.02 98.46 C 107.05 111.37 105.97 124.27 104.59 137.14 C 96.54 139.12 88.63 141.60 80.61 143.71 C 78.91 139.65 78.70 135.22 79.05 130.89 C 83.83 130.02 88.47 128.52 93.13 127.15 C 93.45 122.11 93.93 117.08 94.33 112.05 L 94.40 111.15 C 89.31 111.23 84.22 111.22 79.13 111.17 C 79.08 107.19 79.00 103.21 78.87 99.24 C 73.47 99.23 68.06 99.11 62.68 98.62 Z" />
</g>
<g id="#000000ff">
<path fill="#000000" opacity="1.00" d=" M 38.43 24.69 C 40.57 24.66 42.71 24.65 44.85 24.66 C 44.83 26.71 44.81 28.76 44.81 30.81 C 46.75 30.81 48.69 30.82 50.62 30.83 C 50.61 28.78 50.60 26.72 50.60 24.66 C 52.79 24.66 54.98 24.67 57.17 24.69 C 57.18 31.01 57.18 37.33 57.17 43.65 C 54.99 43.68 52.81 43.69 50.62 43.70 C 50.60 41.59 50.61 39.47 50.62 37.36 C 48.69 37.36 46.76 37.37 44.82 37.38 C 44.81 39.48 44.83 41.59 44.82 43.70 C 42.69 43.69 40.57 43.69 38.44 43.68 C 38.46 37.35 38.48 31.02 38.43 24.69 Z" />
<path fill="#000000" opacity="1.00" d=" M 59.69 24.68 C 65.59 24.65 71.49 24.66 77.39 24.67 C 77.40 26.71 77.40 28.75 77.42 30.80 C 75.51 30.90 73.60 31.03 71.70 31.17 C 71.72 35.35 71.71 39.52 71.72 43.70 C 69.60 43.69 67.47 43.69 65.34 43.69 C 65.37 39.51 65.35 35.34 65.38 31.17 C 63.47 31.04 61.57 30.90 59.66 30.79 C 59.68 28.75 59.68 26.71 59.69 24.68 Z" />
<path fill="#000000" opacity="1.00" d=" M 80.14 24.66 C 82.37 24.66 84.59 24.66 86.82 24.69 C 88.12 26.87 89.45 29.04 90.84 31.17 C 92.17 28.99 93.49 26.81 94.83 24.65 C 96.99 24.95 99.65 23.96 101.49 25.26 C 101.59 31.40 101.44 37.54 101.53 43.69 C 99.42 43.69 97.31 43.69 95.20 43.69 C 95.21 40.69 95.26 37.69 95.13 34.69 C 93.56 36.74 92.18 38.93 90.79 41.10 C 89.30 38.94 87.90 36.71 86.39 34.56 C 86.33 37.61 86.39 40.66 86.35 43.70 C 84.29 43.69 82.22 43.69 80.15 43.68 C 80.18 37.34 80.20 31.00 80.14 24.66 Z" />
<path fill="#000000" opacity="1.00" d=" M 104.57 24.66 C 106.76 24.66 108.95 24.66 111.14 24.68 C 111.14 28.91 111.14 33.14 111.13 37.37 C 114.12 37.36 117.12 37.37 120.12 37.39 C 120.10 39.48 120.11 41.56 120.10 43.65 C 114.93 43.72 109.76 43.64 104.60 43.71 C 104.55 37.36 104.59 31.01 104.57 24.66 Z" />
<path fill="#000000" opacity="1.00" d=" M 293.44 136.86 C 295.47 136.93 297.50 137.16 299.53 137.30 C 298.86 139.00 293.55 139.06 293.44 136.86 Z" />
<path fill="#000000" opacity="1.00" d=" M 247.19 163.34 C 254.86 163.22 262.53 163.58 270.20 163.21 C 262.55 163.95 254.84 163.86 247.19 163.34 Z" />
</g>
<g id="#e44d26ff">
<path fill="#e44d26" opacity="1.00" d=" M 29.23 52.36 C 62.47 52.38 95.71 52.38 128.96 52.36 C 126.19 86.24 123.01 120.09 120.00 153.95 C 117.04 155.75 113.45 156.10 110.20 157.16 C 99.77 159.83 89.51 163.28 79.00 165.56 C 65.37 162.30 51.94 158.06 38.36 154.49 C 35.18 120.46 32.20 86.41 29.23 52.36 M 79.36 61.26 C 79.11 65.28 79.00 69.29 79.04 73.31 C 68.60 73.49 58.15 72.98 47.74 73.59 C 48.97 86.07 50.00 98.58 51.10 111.07 C 60.44 111.26 69.78 111.09 79.13 111.17 C 84.22 111.22 89.31 111.23 94.40 111.15 L 94.33 112.05 C 89.29 111.58 84.23 111.63 79.19 112.06 C 78.98 117.98 79.09 123.92 79.40 129.84 C 78.75 129.99 77.47 130.30 76.82 130.45 C 72.97 129.26 68.72 128.83 65.23 126.76 C 64.66 123.67 64.60 120.51 64.39 117.38 C 60.18 117.32 55.98 117.34 51.77 117.30 C 52.24 123.85 52.84 130.39 53.43 136.94 C 61.74 139.30 70.03 141.81 78.43 143.86 C 78.90 148.16 79.20 152.47 79.51 156.79 C 87.09 155.39 94.32 152.64 101.80 150.87 C 105.12 149.94 108.62 149.35 111.61 147.55 C 113.04 144.25 112.91 140.55 113.27 137.04 C 115.30 111.72 117.86 86.44 119.88 61.12 C 110.93 60.51 101.96 61.02 93.00 60.81 C 88.45 60.70 83.89 60.84 79.36 61.26 Z" />
</g>
<g id="#f16529ff">
<path fill="#f16529" opacity="1.00" d=" M 79.36 61.26 C 83.89 60.84 88.45 60.70 93.00 60.81 C 101.96 61.02 110.93 60.51 119.88 61.12 C 117.86 86.44 115.30 111.72 113.27 137.04 C 112.91 140.55 113.04 144.25 111.61 147.55 C 108.62 149.35 105.12 149.94 101.80 150.87 C 94.32 152.64 87.09 155.39 79.51 156.79 C 79.20 152.47 78.90 148.16 78.43 143.86 C 79.16 143.84 79.89 143.78 80.61 143.71 C 88.63 141.60 96.54 139.12 104.59 137.14 C 105.97 124.27 107.05 111.37 108.02 98.46 C 98.59 98.54 89.17 98.47 79.75 98.51 C 79.31 94.25 79.06 89.97 78.94 85.68 C 89.08 85.72 99.23 85.74 109.38 85.67 C 109.63 81.53 110.02 77.40 110.37 73.27 C 99.93 73.34 89.48 73.27 79.04 73.31 C 79.00 69.29 79.11 65.28 79.36 61.26 Z" />
<path fill="#f16529" opacity="1.00" d=" M 79.19 112.06 C 84.23 111.63 89.29 111.58 94.33 112.05 C 93.93 117.08 93.45 122.11 93.13 127.15 C 88.47 128.52 83.83 130.02 79.05 130.89 C 78.49 130.78 77.38 130.56 76.82 130.45 C 77.47 130.30 78.75 129.99 79.40 129.84 C 79.09 123.92 78.98 117.98 79.19 112.06 Z" />
</g>
<g id="#9a0000ff">
<path fill="#9a0000" opacity="1.00" d=" M 235.09 74.32 C 251.96 70.39 269.75 70.67 286.46 75.27 C 298.46 78.50 309.75 84.40 319.03 92.69 C 314.12 90.77 309.56 88.04 304.53 86.44 C 288.74 81.16 271.67 80.36 255.26 82.62 C 243.12 84.49 231.15 88.60 221.14 95.87 C 221.54 97.69 221.96 99.50 222.38 101.32 C 224.39 109.90 225.93 118.58 227.93 127.17 C 230.38 116.58 233.09 106.06 235.74 95.52 C 237.84 95.50 239.95 95.47 242.06 95.43 C 244.57 106.06 247.12 116.68 250.04 127.20 C 251.48 116.82 254.75 106.73 255.79 96.29 C 258.17 95.85 260.57 95.53 262.97 95.26 C 261.16 103.82 258.75 112.25 256.91 120.81 C 255.75 126.36 254.14 131.81 253.11 137.40 C 251.01 137.42 248.92 137.43 246.83 137.45 C 244.20 126.59 241.35 115.79 238.81 104.92 C 235.97 115.75 233.51 126.69 230.46 137.48 C 228.51 137.45 226.55 137.44 224.60 137.44 C 221.54 125.41 219.01 113.26 215.94 101.23 C 208.92 108.10 206.95 119.53 211.61 128.21 C 216.36 136.70 224.70 142.55 233.42 146.47 C 245.21 151.62 258.14 154.15 271.00 153.78 C 287.07 154.17 303.92 151.70 317.63 142.78 C 315.21 146.02 311.82 148.33 308.44 150.46 C 296.93 157.66 283.66 161.81 270.20 163.21 C 262.53 163.58 254.86 163.22 247.19 163.34 C 231.83 161.61 216.76 156.57 204.08 147.61 C 196.72 141.85 190.30 134.19 188.13 124.91 C 185.50 114.23 189.61 102.84 196.95 94.96 C 206.86 83.98 220.89 77.63 235.09 74.32 Z" />
</g>
<g id="#ebebebff">
<path fill="#ebebeb" opacity="1.00" d=" M 47.74 73.59 C 58.13 74.39 68.57 73.50 78.97 74.11 C 79.00 77.71 79.00 81.30 78.97 84.90 C 72.99 85.02 67.01 85.13 61.04 85.27 C 61.33 87.26 61.63 89.25 61.89 91.25 C 62.16 93.71 62.42 96.16 62.68 98.62 C 68.06 99.11 73.47 99.23 78.87 99.24 C 79.00 103.21 79.08 107.19 79.13 111.17 C 69.78 111.09 60.44 111.26 51.10 111.07 C 50.00 98.58 48.97 86.07 47.74 73.59 Z" />
<path fill="#ebebeb" opacity="1.00" d=" M 51.77 117.30 C 55.98 117.34 60.18 117.32 64.39 117.38 C 64.60 120.51 64.66 123.67 65.23 126.76 C 68.72 128.83 72.97 129.26 76.82 130.45 C 77.38 130.56 78.49 130.78 79.05 130.89 C 78.70 135.22 78.91 139.65 80.61 143.71 C 79.89 143.78 79.16 143.84 78.43 143.86 C 70.03 141.81 61.74 139.30 53.43 136.94 C 52.84 130.39 52.24 123.85 51.77 117.30 Z" />
</g>
<g id="#c3bfbfff">
<path fill="#c3bfbf" opacity="1.00" d=" M 221.14 95.87 C 231.15 88.60 243.12 84.49 255.26 82.62 C 271.67 80.36 288.74 81.16 304.53 86.44 C 309.56 88.04 314.12 90.77 319.03 92.69 C 319.29 92.80 319.83 93.01 320.09 93.11 C 320.26 93.64 320.61 94.69 320.78 95.22 C 315.28 93.22 310.36 89.89 304.77 88.10 C 290.10 83.25 274.35 82.27 259.05 83.90 C 247.48 85.46 235.90 88.68 225.88 94.83 C 223.34 96.01 222.85 98.84 222.38 101.32 C 221.96 99.50 221.54 97.69 221.14 95.87 Z" />
</g>
<g id="#e44c25ff">
<path fill="#e44c25" opacity="1.00" d=" M 61.49 85.69 C 67.31 85.66 73.12 85.64 78.94 85.68 C 79.06 89.97 79.31 94.25 79.75 98.51 C 74.06 98.56 68.37 98.49 62.68 98.62 C 62.42 96.16 62.16 93.71 61.89 91.25 C 61.73 89.40 61.61 87.54 61.49 85.69 Z" />
</g>
<g id="#d9dfe0ff">
<path fill="#d9dfe0" opacity="1.00" d=" M 255.79 96.29 C 258.03 94.03 261.30 94.72 264.16 94.83 C 263.39 101.52 260.92 107.95 261.10 114.75 C 260.71 116.17 260.32 117.59 259.94 119.01 C 259.35 121.06 258.48 123.02 257.62 124.96 C 257.24 123.60 257.01 122.21 256.91 120.81 C 258.75 112.25 261.16 103.82 262.97 95.26 C 260.57 95.53 258.17 95.85 255.79 96.29 Z" />
<path fill="#d9dfe0" opacity="1.00" d=" M 283.84 123.07 C 285.14 115.45 283.05 107.52 285.23 100.07 C 285.36 112.55 285.57 125.05 285.12 137.53 L 285.03 138.68 C 284.20 134.46 283.94 130.15 283.94 125.86 C 282.78 129.75 282.62 134.44 279.14 137.14 C 274.14 141.50 264.37 140.79 261.85 134.03 C 263.34 135.32 264.90 136.59 266.71 137.43 C 269.49 138.42 272.51 138.35 275.29 137.36 C 279.30 135.65 281.27 131.45 282.22 127.45 C 279.23 127.97 276.90 129.80 274.93 132.00 C 273.18 134.26 270.12 133.49 267.78 132.83 C 271.54 132.48 275.31 131.38 277.22 127.81 C 273.64 127.26 270.02 127.13 266.41 127.13 C 266.24 127.88 265.90 129.39 265.73 130.15 C 265.12 128.59 264.61 127.01 264.10 125.43 C 270.22 125.14 276.36 125.33 282.50 125.25 C 282.20 121.79 281.78 118.33 280.99 114.94 C 282.50 117.42 283.29 120.24 283.84 123.07 Z" />
</g>
<g id="#990000ff">
<path fill="#990000" opacity="1.00" d=" M 321.17 99.07 C 327.11 96.01 335.21 97.17 339.48 102.52 C 341.55 104.97 342.41 108.15 342.77 111.28 C 340.44 111.29 338.10 111.29 335.77 111.32 C 334.56 109.25 333.70 106.73 331.51 105.47 C 327.89 103.27 322.69 104.98 320.87 108.75 C 317.87 114.71 317.90 122.55 322.06 127.95 C 325.25 132.04 333.70 131.93 335.33 126.42 C 335.66 125.12 335.82 123.79 336.05 122.47 C 333.53 122.48 331.01 122.48 328.50 122.50 C 328.51 120.46 328.53 118.42 328.54 116.38 C 333.08 116.61 337.62 116.82 342.16 116.99 C 342.53 123.18 342.51 129.38 342.19 135.57 C 340.67 135.90 339.16 136.22 337.64 136.54 C 337.62 135.64 337.56 133.83 337.53 132.93 C 335.13 135.13 332.57 137.82 329.04 137.69 C 322.49 138.50 316.03 134.43 313.33 128.53 C 310.87 123.83 311.04 118.36 311.51 113.23 C 312.45 107.45 315.66 101.62 321.17 99.07 Z" />
<path fill="#990000" opacity="1.00" d=" M 354.43 98.34 L 355.45 98.22 C 355.49 108.69 355.50 119.17 355.44 129.64 C 361.03 129.62 366.62 129.72 372.21 129.56 C 372.05 131.80 371.90 134.05 371.77 136.30 C 363.87 136.55 355.95 136.53 348.05 136.35 C 348.30 123.92 348.03 111.49 348.22 99.06 C 350.29 98.82 352.36 98.59 354.43 98.34 Z" />
</g>
<g id="#ad8484ff">
<path fill="#ad8484" opacity="1.00" d=" M 347.30 98.14 C 349.68 98.19 352.05 98.27 354.43 98.34 C 352.36 98.59 350.29 98.82 348.22 99.06 C 348.03 111.49 348.30 123.92 348.05 136.35 C 355.95 136.53 363.87 136.55 371.77 136.30 C 371.90 134.05 372.05 131.80 372.21 129.56 C 372.49 130.94 372.78 132.33 373.09 133.72 C 374.37 134.00 375.66 134.28 376.96 134.57 C 376.97 135.06 376.99 136.06 377.00 136.56 C 376.58 136.58 375.75 136.64 375.33 136.66 C 365.97 137.44 356.57 137.32 347.19 137.11 C 347.37 124.12 347.16 111.13 347.30 98.14 Z" />
</g>
<g id="#970101ff">
<path fill="#970101" opacity="1.00" d=" M 285.21 99.39 C 286.93 99.38 288.66 99.34 290.40 99.28 C 290.34 103.20 290.35 107.11 290.37 111.03 C 293.35 109.78 296.55 107.59 299.90 108.94 C 304.96 110.47 307.52 116.01 307.57 120.96 C 307.90 126.00 306.91 131.47 303.39 135.30 C 302.29 136.19 301.07 137.52 299.53 137.30 C 297.50 137.16 295.47 136.93 293.44 136.86 C 290.63 136.44 287.91 137.38 285.12 137.53 C 285.57 125.05 285.36 112.55 285.23 100.07 L 285.21 99.39 M 293.46 114.27 C 289.69 116.89 290.28 122.03 290.29 126.04 C 290.02 130.04 293.74 134.39 297.95 133.40 C 301.88 131.67 302.56 126.77 302.44 122.97 C 302.38 119.54 301.66 115.00 297.92 113.73 C 296.46 113.44 294.69 113.25 293.46 114.27 Z" />
</g>
<g id="#960101ff">
<path fill="#960101" opacity="1.00" d=" M 261.10 114.75 C 263.47 111.14 267.50 108.25 271.98 108.54 C 276.05 108.41 279.30 111.50 280.99 114.94 C 281.78 118.33 282.20 121.79 282.50 125.25 C 276.36 125.33 270.22 125.14 264.10 125.43 C 264.61 127.01 265.12 128.59 265.73 130.15 C 266.38 131.06 267.07 131.95 267.78 132.83 C 270.12 133.49 273.18 134.26 274.93 132.00 C 276.90 129.80 279.23 127.97 282.22 127.45 C 281.27 131.45 279.30 135.65 275.29 137.36 C 272.43 137.50 269.57 137.52 266.71 137.43 C 264.90 136.59 263.34 135.32 261.85 134.03 C 259.07 129.57 258.77 124.02 259.94 119.01 C 260.32 117.59 260.71 116.17 261.10 114.75 M 264.19 120.46 C 268.60 120.85 273.03 120.64 277.45 120.66 C 277.00 119.37 276.59 118.07 276.05 116.82 C 275.06 113.77 270.93 112.59 268.29 114.19 C 265.83 115.31 265.34 118.29 264.19 120.46 Z" />
</g>
<g id="#f9fcfcff">
<path fill="#f9fcfc" opacity="1.00" d=" M 264.19 120.46 C 265.34 118.29 265.83 115.31 268.29 114.19 C 270.93 112.59 275.06 113.77 276.05 116.82 C 276.59 118.07 277.00 119.37 277.45 120.66 C 273.03 120.64 268.60 120.85 264.19 120.46 Z" />
</g>
<g id="#feffffff">
<path fill="#feffff" opacity="1.00" d=" M 293.46 114.27 C 294.69 113.25 296.46 113.44 297.92 113.73 C 301.66 115.00 302.38 119.54 302.44 122.97 C 302.56 126.77 301.88 131.67 297.95 133.40 C 293.74 134.39 290.02 130.04 290.29 126.04 C 290.28 122.03 289.69 116.89 293.46 114.27 Z" />
</g>
<g id="#953536ff">
<path fill="#953536" opacity="1.00" d=" M 328.54 116.38 C 333.48 116.28 338.43 116.33 343.35 115.69 C 343.46 122.99 343.44 130.29 343.36 137.59 C 341.44 137.30 339.55 136.88 337.64 136.54 C 339.16 136.22 340.67 135.90 342.19 135.57 C 342.51 129.38 342.53 123.18 342.16 116.99 C 337.62 116.82 333.08 116.61 328.54 116.38 Z" />
</g>
<g id="#fdfdfdff">
<path fill="#fdfdfd" opacity="1.00" d=" M 266.41 127.13 C 270.02 127.13 273.64 127.26 277.22 127.81 C 275.31 131.38 271.54 132.48 267.78 132.83 C 267.07 131.95 266.38 131.06 265.73 130.15 C 265.90 129.39 266.24 127.88 266.41 127.13 Z" />
</g>
<g id="#d3d6d6ff">
<path fill="#d3d6d6" opacity="1.00" d=" M 347.19 137.11 C 356.57 137.32 365.97 137.44 375.33 136.66 C 373.03 137.70 370.64 138.74 368.07 138.70 C 361.51 138.79 354.95 138.65 348.40 138.62 C 348.09 138.25 347.49 137.49 347.19 137.11 Z" />
</g>
<g id="#7e3f3fff">
<path fill="#7e3f3f" opacity="1.00" d=" M 266.71 137.43 C 269.57 137.52 272.43 137.50 275.29 137.36 C 272.51 138.35 269.49 138.42 266.71 137.43 Z" />
</g>
<g id="#c4c1c1ff">
<path fill="#c4c1c1" opacity="1.00" d=" M 318.59 141.56 C 319.23 141.51 320.51 141.43 321.15 141.39 C 316.99 147.94 309.98 151.80 303.34 155.38 C 289.80 162.72 274.24 165.30 259.00 165.66 C 240.83 165.31 222.22 161.28 206.95 151.02 C 205.74 150.12 204.94 148.81 204.08 147.61 C 216.76 156.57 231.83 161.61 247.19 163.34 C 254.84 163.86 262.55 163.95 270.20 163.21 C 283.66 161.81 296.93 157.66 308.44 150.46 C 311.82 148.33 315.21 146.02 317.63 142.78 C 317.87 142.48 318.35 141.86 318.59 141.56 Z" />
</g>
<g id="#f6c6b9ff">
<path fill="#f6c6b9" opacity="1.00" d=" M 74.34 168.25 C 78.18 166.87 82.26 167.64 86.02 168.87 C 92.84 171.09 100.01 172.29 106.51 175.41 C 101.70 176.05 96.85 176.32 92.01 176.07 C 78.53 175.52 65.02 176.71 51.57 175.38 C 58.88 172.17 66.77 170.68 74.34 168.25 Z" />
</g>
<g id="#e1b8b8ff">
<path fill="#e1b8b8" opacity="1.00" d=" M 227.42 177.20 C 234.23 173.96 241.82 173.13 249.20 172.18 C 259.75 170.88 270.43 171.98 280.79 174.14 C 283.84 174.77 286.76 175.89 289.58 177.20 C 279.10 178.58 268.53 177.74 258.00 177.93 C 247.80 177.77 237.57 178.53 227.42 177.20 Z" />
</g>
<g id="#f8d1c7ff">
<path fill="#f8d1c7" opacity="1.00" d=" M 39.46 177.66 C 43.52 177.03 47.43 175.37 51.57 175.38 C 65.02 176.71 78.53 175.52 92.01 176.07 C 96.85 176.32 101.70 176.05 106.51 175.41 C 111.07 175.14 115.30 177.25 119.61 178.41 C 119.71 179.04 119.91 180.31 120.01 180.94 C 110.95 181.12 101.86 181.27 92.83 180.27 C 84.20 179.32 75.63 181.25 67.00 181.07 C 57.79 180.96 48.59 181.13 39.38 180.95 C 39.43 179.85 39.46 178.76 39.46 177.66 Z" />
</g>
<g id="#ebceceff">
<path fill="#ebcece" opacity="1.00" d=" M 216.63 181.51 C 219.86 179.41 223.36 176.89 227.42 177.20 C 237.57 178.53 247.80 177.77 258.00 177.93 C 268.53 177.74 279.10 178.58 289.58 177.20 C 294.70 177.07 299.18 180.22 302.94 183.36 C 296.83 184.68 290.72 182.71 284.62 182.39 C 276.49 181.52 268.32 181.91 260.17 182.08 C 245.66 181.62 231.12 182.68 216.63 181.51 Z" />
</g>
<g id="#faddd4ff">
<path fill="#faddd4" opacity="1.00" d=" M 37.58 186.07 C 37.89 183.25 37.55 180.00 39.46 177.66 C 39.46 178.76 39.43 179.85 39.38 180.95 C 48.59 181.13 57.79 180.96 67.00 181.07 C 75.63 181.25 84.20 179.32 92.83 180.27 C 101.86 181.27 110.95 181.12 120.01 180.94 C 120.19 181.84 120.54 183.64 120.72 184.54 C 117.40 185.59 113.91 186.16 110.43 185.68 C 98.33 184.33 86.14 185.00 74.03 185.93 C 61.89 186.28 49.73 185.87 37.58 186.07 Z" />
</g>
<g id="#f1ddddff">
<path fill="#f1dddd" opacity="1.00" d=" M 211.54 182.53 C 213.22 182.12 214.89 181.60 216.63 181.51 C 231.12 182.68 245.66 181.62 260.17 182.08 C 255.84 183.32 251.40 184.19 246.93 184.79 C 235.15 186.45 223.24 186.00 211.39 185.92 C 211.44 184.79 211.49 183.66 211.54 182.53 Z" />
</g>
<g id="#f9f0f0ff">
<path fill="#f9f0f0" opacity="1.00" d=" M 203.61 190.72 C 204.65 186.69 208.15 184.45 211.54 182.53 C 211.49 183.66 211.44 184.79 211.39 185.92 C 223.24 186.00 235.15 186.45 246.93 184.79 C 241.10 187.46 234.82 189.03 228.61 190.52 C 220.33 191.53 211.92 191.03 203.61 190.72 Z" />
</g>
<g id="#fce8e1ff">
<path fill="#fce8e1" opacity="1.00" d=" M 120.72 184.54 C 121.01 185.80 121.31 187.06 121.61 188.33 C 119.63 189.62 117.60 191.17 115.10 191.08 C 104.70 191.30 94.27 190.93 83.92 189.77 C 77.55 188.67 71.30 190.77 64.99 191.29 C 58.33 191.87 51.65 192.64 44.95 192.39 C 42.64 192.25 40.14 192.16 38.17 190.78 C 37.85 189.22 37.79 187.63 37.58 186.07 C 49.73 185.87 61.89 186.28 74.03 185.93 C 86.14 185.00 98.33 184.33 110.43 185.68 C 113.91 186.16 117.40 185.59 120.72 184.54 Z" />
</g>
<g id="#fef3f1ff">
<path fill="#fef3f1" opacity="1.00" d=" M 115.10 191.08 C 117.60 191.17 119.63 189.62 121.61 188.33 C 121.50 191.50 121.30 194.67 120.91 197.82 C 115.20 198.17 109.15 198.92 103.87 196.18 C 97.55 192.96 89.96 193.63 83.92 189.77 C 94.27 190.93 104.70 191.30 115.10 191.08 Z" />
</g>
</svg>
